<?xml version="1.0" encoding="UTF-8"?><svg id="Layer_1" xmlns="http://www.w3.org/2000/svg" viewBox="0 0 741.38 1222.23"><defs><style>.cls-1{fill:#231f20;fill-rule:evenodd;}</style></defs><polygon class="cls-1" points="285.83 292.25 285.83 321.09 285.83 356.24 285.83 525.98 285.83 628.21 285.83 947.87 169.73 861.7 169.73 525.98 250.08 525.98 250.08 356.24 0 356.24 0 947.1 370.69 1222.23 741.38 947.1 741.38 356.24 491.31 356.24 491.31 525.98 571.65 525.98 571.65 861.7 455.56 947.87 455.56 628.21 455.56 525.98 455.56 356.24 455.56 321.09 455.56 292.25 649.2 292.25 649.2 122.52 455.56 122.52 455.56 0 285.83 0 285.83 122.52 92.18 122.52 92.18 292.25 285.83 292.25"/></svg>