<?xml version="1.0" encoding="UTF-8"?><svg id="bible" xmlns="http://www.w3.org/2000/svg" viewBox="0 0 1000 425.04"><defs><style>.cls-1,.cls-2{fill:#fff;}.cls-2{fill-rule:evenodd;}</style></defs><polygon class="cls-2" points="211.35 119.28 211.35 127.71 211.35 137.99 211.35 187.62 211.35 217.52 211.35 310.99 177.4 285.8 177.4 187.62 200.9 187.62 200.9 137.99 127.77 137.99 127.77 310.77 236.17 391.22 344.57 310.77 344.57 137.99 271.44 137.99 271.44 187.62 294.93 187.62 294.93 285.8 260.99 310.99 260.99 217.52 260.99 187.62 260.99 137.99 260.99 127.71 260.99 119.28 317.61 119.28 317.61 69.65 260.99 69.65 260.99 33.82 211.35 33.82 211.35 69.65 154.73 69.65 154.73 119.28 211.35 119.28"/><path class="cls-1" d="m362.36,142.7h95.57c17.44,0,26.16,6.77,26.16,20.29v49.65c0,7.3-4.18,11.48-12.55,12.55v2.67c4.45.71,7.7,2.09,9.74,4.14,2.04,2.05,3.07,4.94,3.07,8.68v50.18c0,6.77-2.18,11.75-6.54,14.95-4.36,3.2-10.99,4.8-19.89,4.8h-95.57v-167.91Zm54.19,68.34h13.08c1.24,0,1.87-.62,1.87-1.87v-24.56c0-1.24-.63-1.87-1.87-1.87h-13.08l-1.33,1.33v25.63l1.33,1.33Zm0,59.79h13.08c1.24,0,1.87-.62,1.87-1.87v-24.83c0-1.24-.63-1.87-1.87-1.87h-13.08l-1.33,1.33v25.89l1.33,1.33Z"/><path class="cls-1" d="m497.7,142.7h52.85v167.91h-52.85v-167.91Z"/><path class="cls-1" d="m563.9,142.7h95.57c17.44,0,26.16,6.77,26.16,20.29v49.65c0,7.3-4.18,11.48-12.55,12.55v2.67c4.45.71,7.7,2.09,9.74,4.14,2.04,2.05,3.07,4.94,3.07,8.68v50.18c0,6.77-2.18,11.75-6.54,14.95-4.36,3.2-10.99,4.8-19.89,4.8h-95.57v-167.91Zm54.19,68.34h13.08c1.24,0,1.87-.62,1.87-1.87v-24.56c0-1.24-.63-1.87-1.87-1.87h-13.08l-1.33,1.33v25.63l1.33,1.33Zm0,59.79h13.08c1.24,0,1.87-.62,1.87-1.87v-24.83c0-1.24-.63-1.87-1.87-1.87h-13.08l-1.33,1.33v25.89l1.33,1.33Z"/><path class="cls-1" d="m699.24,142.7h52.85v126.8l1.33,1.33h34.7v39.77h-88.89v-167.91Z"/><path class="cls-1" d="m801.47,142.7h99.3v40.04h-45.11l-1.33,1.33v21.36l1.33,1.33h44.58v40.04h-44.58l-1.33,1.33v21.36l1.33,1.33h45.38v39.77h-99.57v-167.91Z"/></svg>