<?xml version="1.0" encoding="utf-8"?>
<!-- Generator: Adobe Illustrator 27.3.1, SVG Export Plug-In . SVG Version: 6.00 Build 0)  -->
<svg version="1.1" xmlns="http://www.w3.org/2000/svg" xmlns:xlink="http://www.w3.org/1999/xlink" x="0px" y="0px"
	 viewBox="0 0 3000 3000" style="enable-background:new 0 0 3000 3000;" xml:space="preserve">
<style type="text/css">
	.st0{display:none;}
	.st1{display:inline;}
	.st2{fill:#FFFFFF;stroke:#000000;stroke-width:21;stroke-miterlimit:10;}
	.st3{enable-background:new    ;}
	.st4{fill:#FFFFFF;}
	.st5{stroke:#FFFFFF;stroke-width:21;stroke-miterlimit:10;}
	.st6{fill-rule:evenodd;clip-rule:evenodd;fill:#FFFFFF;}
</style>
<g id="WHITE" class="st0">
	<g id="GLOBAL" class="st1">
		<g>
			<g>
				
					<ellipse transform="matrix(0.7071 -0.7071 0.7071 0.7071 -580.0849 1605.5905)" class="st2" cx="1648.1" cy="1503" rx="932.8" ry="932.8"/>
				<g>
					<path d="M927,2025.9c4.4-10.7,9.6-21.1,14.1-31.7c2.3-5.4,5.1-11.7,4.3-17.8c-0.9-6.4-5.9-11.9-10-16.6
						c-8.4-9.6-17.3-18.7-25.9-28c-19.5-21.1-39.8-41.5-57.8-63.9c-8.9-11.1-17.3-22.7-24.5-34.9c-3.6-6-6.8-12.2-9.8-18.5
						c-2.9-6.3-5.8-12.7-7-19.5c-2.1-11.8,1-25.2-4.8-36.2c-5.7-10.8-16.7-15.8-28-18.7c-10.7-2.7-22.1-3.6-33.3-5.2
						c33.1,129.7,93.2,248,173.6,349C917.1,2064,919.4,2044.5,927,2025.9z"/>
					<path d="M1224.1,677.2c-16.2,20.8-25.9,45.8-41.6,66.9c-4,5.4-8.2,10.2-13.7,14.2c-4.9,3.6-10.4,6.2-15.8,9.1
						c-5.6,3.1-11.2,6.5-15,11.8c-3.6,4.9-7.2,9.7-10.1,15.1c-11.4,21.8-13.9,46.8-19.4,70.4c17,2.9,34.7,4.4,51.7,0.8
						c24.3-5.1,41.6-21.2,54.9-41.4c15.5-23.4,27.2-49,42.7-72.3c0.9-1.3,2.2-1.8,3.7-1.5c20.3,3.8,39.6-11.7,54.9-22.8
						c8.5-6.1,16.9-12.5,26.1-17.6c8.5-4.7,17.3-7,27-8c19.6-1.9,39.3,0.7,58.8,0.6c16.4,0,36.6-1.2,48.2-14.5
						c11.1-12.7,16.1-29.7,27.2-42.4c3.3-3.8,8-6.6,12.1-9.4c4.5-3,9.1-5.8,13.8-8.4c9.9-5.5,20.2-10.2,30.6-14.6
						c21.7-9.1,43.9-17,66.4-23.8c18.9-5.8,37.7-12,56.3-18.7c-27.1-1-54.5-0.9-82.1,0.5c-132.6,6.7-257.3,40.8-369,96.5
						C1229.3,670.9,1226.6,674,1224.1,677.2z"/>
					<g>
						<path d="M2239.7,1572.9c0,0.1-0.1,0.1-0.1,0.2c0,0,0,0,0,0C2239.6,1573,2239.6,1573,2239.7,1572.9
							C2239.7,1572.9,2239.7,1572.9,2239.7,1572.9z"/>
						<path d="M2240,1572.9c0.1-0.1,0.2-0.2,0.3-0.2c0,0,0,0,0,0C2240.2,1572.7,2240.1,1572.8,2240,1572.9z"/>
						<g>
							<path d="M1619,697.1c-0.1,0.1-0.2,0.3-0.3,0.4c0,0,0.1,0,0.1,0C1619.3,697,1619.2,696.9,1619,697.1z"/>
							<path d="M2579.7,1456c-15.3-302.9-173.5-564.7-406-723.6c-13.2,2-26.1,5.4-39.1,10c-18.7,6.6-37.7,15-57.6,17.6
								c-17,2.2-35.3,0.7-51.1-6.2c-15-6.6-28.8-18.2-39.1-30.9c-3-3.7-5.5-7.6-7.6-11.9c-1.3-2.7-2.3-5.9-4.2-8.3
								c-5.9-7.6-21.8-6.8-30.1-7.4c-16.8-1.2-33.2,2.7-49.9,2.6c-17-0.1-33.3-7-47.9-15.3c-11.3-6.4-21.7-16.3-33.8-21.1
								c-14.2-5.7-32.2-0.6-46.4,2.8c-35.6,8.3-70.5,22.4-107.7,21.4c-6.3-0.2-13.8-1.1-20.7-0.5c-1.5-1.8-3.1-3.4-5.2-4.6
								c-5.7-3.1-11.7-2.7-17.7-0.6c-11.7,4.1-20.5,15.6-23.3,27.5c-1,3.9-0.1,9.5,4.8,10.3c9.5,1.7,19.1,1.9,28.7,1.2
								c5.3-0.4,10.8-0.7,16-1.8c1.8-0.4,3.5-1,5.3-1.6c34.8-2.7,71.7,2.3,100.7,22c7.2,4.9,13.4,8.7,22.3,9.4
								c10.3,0.8,19-0.3,28.5-4.4c15-6.5,28.6-14.1,45.2-8.3c1.6,0.5,2.9,2.3,2.3,4c-8.3,22.9-7.3,48.2,12.2,65.1
								c1.2,1.1,1.3,3.6,0,4.6c-10.9,8.7-23.9,11.5-37.4,13.3c-7.4,1-14.9,1.6-22.1,3.4c-7.6,1.9-13.6,5.8-19.8,10.4
								c-7.3,5.4-13.5,12.3-20.8,17.7c-7.6,5.7-16.8,8-26,9.8c-24.5,4.7-51.4,8.7-76.1,3.1c-22.3-5.1-39.9-18.3-56.9-32.8
								c-6.5-5.5-12.9-10.9-20.4-15c-9.4-5.2-19.8-8.1-30.2-10.5c-12.4-2.8-25.2-6-37.9-7.4c-7.4-0.8-14.1,0-20.9,3.2
								c-20.8,9.9-37.6,26.1-55.5,40.1c-17.7,13.8-39.2,20-61,24.3c-20.7,4-43.1,5.3-55.2,25.5c-6,10-8.8,22.4-11.8,33.5
								c-3,11-5.6,22.1-9,33c13.1,4.1,25.2,11.2,38.1,16.1c7.9,3,16.4,2.9,24.6,5.1c2.4,0.6,9.5,3.9,10.7,3.4
								c1.3-0.6,2.5-4.4,3.2-5.6c2.2-3.7,4.9-7.5,9.1-9.3c5-2.1,10.4,0,15.3,1.3c9.3,2.3,18.9,5.3,26.6,11.1
								c13.3,10.1,15.7,27.5,19.2,42.7c5.4,23.4,14.1,46.1,22.2,68.8c3.1,4.8,6.3,9.5,9.4,14.3c3.7,5.9,7.4,11.8,10.6,18
								c2.1,4,5.6,9.1,5.3,13.8c-0.7,9.2-2.5,18.4-4.4,27.5c0.6,3.4,1.2,6.9,1.7,10.3c6.5,3.8,14.3,6.6,20.2,1.7
								c6.3-5.2,8.3-14.8,9.7-22.4c1.8-10,2.1-20.2,2.1-30.3c-2.7-7.9-5.9-15.7-9-23.2c-15-36.5-36.4-71.4-42.8-110.9
								c-0.4-2.6,2.1-5.3,4.8-3.7c37.4,23,54.7,65.8,88.1,92.9c10.6,8.7,23.2,17.5,30.6,29.4c-1,5.9-0.8,12.1-0.6,17.7
								c0.4,11.8,1.2,23.8,3.4,35.4c5.7,29.6,32,46.4,44.9,72.1c3.9,7.8,15.8,1.5,19.7-2.1c9.2-8.4,11.6-20.2,9.2-32
								c-2.1-10.1-7.4-19.2-9.5-29.3c-0.4-2.1-0.6-4.1-0.4-6.2c0-0.7,0.1-1.5,0.2-2.2c0.5-0.3,1.1-0.7,1.6-0.9
								c1.6-0.7,3.1-1.5,4.6-2.3c11.9,4.8,23.1,11.4,33.3,18.9c10.8,8,23.7,18.8,26.3,32.8c1.8,9.8-0.6,19.8-1.3,29.6
								c-0.8,12.6,2.8,23.5,10.8,33.3c12.8,15.7,34.2,21.2,48.6,35.2c1,1,1.3,2.7,0.5,4c-21.9,34.9-33.2,78.3-69.5,102
								c-1.6,1.1-4.4,0.1-4.8-1.9c-4.6-27.2-29.9-50-50.8-65.7c-12.3-9.2-25.8-17.5-40.1-23.2c-11.1-4.5-23.7-8.2-35.8-6.3
								c-11.6,1.8-21,10.4-29.3,18.2c-9.4,8.8-18.2,18.4-28.5,26.2c-17.3,13.1-40.7,16.6-54.5-3c-6.8-9.7-10.6-21.2-16.3-31.5
								c-2.9-5.3-6.1-10.4-10.6-14.5c-6.7-6.2-17.3-5.8-25.9-5.6c-14.1,0.5-27.4,1-36.8-11.2c-7.3-9.5-8.4-22.1-9.4-33.7
								c-1.1-12.1-1-28.3-12.3-35.8c-11.9-7.9-27.7-6.8-41.2-5.3c-29.3,3.3-57.9,11.7-86.3-0.5c-6.8-2.9-10.3-6.9-14.3-12.9
								c-7.1-11-18.8-18.1-29.8-24.7c-6-3.6-12.5-7-19.1-7.2c-12.5,4.1-23.4,11.3-30.9,22.6c-15.5,23.2-16.9,52.8-29.2,77.5
								c-7.3,14.8-18.3,25.1-31,35.3c-12.3,9.9-25.2,19.1-38.2,28.2c-18.5,12.9-38.7,25.9-48.1,47.4c-12.7,28.9-5,60.9-7.4,91.2
								c-2.8,36.3-12.4,72.2-11.5,108.7c0.2,7.9,1,15.8,3.2,23.3c1.9,6.6,5.8,11.6,10.5,16.5c11.8,12.3,26.2,22,40.3,31.3
								c14.3,9.4,28.9,18.2,43.1,27.8c13.6,9.2,25.7,20.2,38.7,30.2c5.4,4.1,11.2,8,17.9,9.5c8.3,1.9,17-0.1,25-2.7
								c16.6-5.3,26.3-17.7,37.8-29.7c9.4-9.8,23.5-16.1,37.3-14.1c11.1,1.5,22.3,7.2,32.5,11.6c14.8,6.4,29.3,13.5,43.4,21.4
								c10.3,5.8,20.6,11.8,29.3,19.8c12.1,11,20.8,24.3,21.3,41.1c0.1,1.8,0,3.5-0.1,5.2c-1.8,0.3-3.7,1.4-4.4,2.6
								c-9.7,17.2-16.6,35.4-20.7,54.6c-2.1,9.8-2.8,19.5-1.5,29.5c1.3,10.5,6.2,20.5,10.6,30c4.4,9.6,8.4,20.6,14.8,29.1
								c5.8,7.7,13.3,14,19.6,21.3c5.1,6,8,12.2,5.4,19.5c-2.7,7.3-5.4,14.2-2.6,22c1.8,4.9,4.7,9.4,8.4,13
								c3.6,3.5,7.8,5.1,12.1,7.4c1.4,0.8,2.8,1.5,4,2.5c0.3,1.1,0.9,2,2,2.8c0.2,0.5,0.4,0.9,0.5,1.4c0.6,4.9-1.3,9.5,0.4,14.6
								c6.3,19.4,29.2,25.4,42,39.1c15.6,16.7,21.3,40.8,34.7,59.1c5.3,7.3,12.2,15.1,21.7,15.9c9.5,0.8,17.8-5,23.2-12.4
								c3.6-1.5,7.1-3.9,10-6.6c4.4-4.1,7.5-9.4,11.6-13.8c2.2-2.4,1.5-1.6,4.3-3.8c2.9-2.2,6-4.2,9.1-6.1
								c13.2-8.4,27.6-17.3,33.7-32.5c3.3-8.1,3-16.8,1.1-25.2c-0.9-3.7-2.2-7.5-3.2-11.3c3.2-4.6,6.3-9.2,9.8-13.3
								c1.7-2,3.2-4.6,3.8-7.3c5.5-4,11.3-7.6,17.2-11.1c1.7-0.5,3.5-1,5.9-1.7c11.8-3.2,22.7-5.4,34.7-6.6
								c15.8-1.6,30.4-9.4,37.9-23.9c3-5.8,4.1-12,5.1-18.2c20.7-17.6,38.7-38.5,58.5-57.1c13.7-12.8,28.1-24.9,43.4-35.8
								c11.6-8.4,23.9-15.6,36-23c3.1,1.4,6.3,2.9,10,3c10.1,0.3,20.8-5,27.9-11.9c5.2-5,8.2-11.3,11.5-17.6
								c9.3-17.9,27.4-29.3,39-45.7c2.6-3.6,3-10.2-1.3-12.8c-18.3-11.1-41.6-10.9-62.3-9.2c-9.2,0.8-17.5,3.8-26.2,6.5
								c-0.6,0.2-1.2,0.4-1.8,0.5c-32.4-17.3-59.4-53.4-53.3-91.3c2-12.2,6.4-23.8,9.9-35.6c0.7-2.4,1.3-4.8,1.8-7.1
								c-2.1-5.4-4.9-10.4-8.8-14.7c-4.7-5.1-10.9-8.4-15.2-13.8c-5-6.1-6.7-13.1-5.5-20.9c1.2-8.4,4.7-16.1,6.9-24.2
								c2.4-8.8,2-17.3-0.9-26c-4.9-15.2-16.8-26.4-27-38.2c-1.7-2-0.7-5.8,2.3-5.6c19.5,1.6,39.7,6.2,54.1,20.3
								c0.5,0.5,1,1.1,1.5,1.6c1.4,0.2,2.8,1.2,3,3.1c0,0.1,0,0.2,0,0.3c8.7,10.6,13.9,23.9,18,36.9c3,9.5,6,19.3,7.5,29.2
								c1.8,11.8,2.8,23.7,4.3,35.5c1.5,11.7,3.4,23.7,7.7,34.8c1.9,4.8,4.4,9.2,7.4,13.3c13.8,12.5,31.9,19.7,47.6,29.4
								c9.1,5.6,17.8,12,26,18.8c5.3,4.4,10.4,9.4,16.1,13.2c12.1,8,24.8-0.8,35.4-7.6c10.9-7,21.8-14.3,32.1-22.1
								c10.6-8,20.6-16.7,31.4-24.4c6.8-4.8,14.1-9.3,21.8-12.6c1.6-1.5,3.3-2.9,5-4.2c-13.5-7.2-22.3-18.7-29.5-32.4
								c-6.3-11.9-12.6-26.4-25.5-32.4c-14.1-6.5-33.1-3.1-43.5-16.8c-3.7-5-6.7-10.5-9.1-16.3c-4.3-7-7.7-14.6-10.5-22.1
								c-6.5-17.5-9.8-36.2-10.5-54.8c-1.3-37.3,8.7-78.7,38.7-103.3c6.2-5.1,12.1-8.7,20.4-7.4c7.5,1.2,14.6,5.4,22.3,3.8
								c6-1.3,12.7-6.2,15.7-11.6c2.9-5.3,2.7-12,2-17.8c-1-8.6-4.1-18,0.3-26.1c9-16.6,27.7-26,44.3-33c20-8.5,41-14.5,60.9-23.4
								c1.6-0.7,3.5-0.5,4.5,1.2c3.3,5.7,5.7,11.7,7.8,17.9c11.1,4.9,12.8,25.7,13,36.7c0.5,21.2-2.3,42.3-4,63.3
								c-0.3,3.3-0.5,6.6-0.5,9.9c0,0.7,0,1.4,0.1,2.1c0.1,0.8,0.1,0.5,0.1,0.6c0.5,3,1.5,5.9,2.5,8.8c4.7,13.2,13.3,24.1,21.1,35.6
								c7.1,10.4,12.6,21.6,13,34.5c0.5,16-5.9,32.2-13.5,46c-6.2,11.4-14.7,22.2-18.4,34.8c-0.4,1.4-0.7,2.9-0.9,4.3
								c-2.1,5.3-3.2,10.8-2.5,16.4c0.7,5.7,2.5,11.2,3.5,16.9c1.1,6.5,1.7,13.2,2.2,19.8c1.1,15.3,1.3,30.7,0.6,46.1
								c-0.4,8.7-1.1,17.4-2.4,26c-0.5,3.3-1.2,6.6-2.1,9.9c-0.5,1.6-1,3.3-1.6,4.9c-0.3,0.9-2.1,4.7-1.2,3.1
								c-3.7,7.2,0,16.2,9.4,13.5c35.6-10.3,44.8-52.5,52.3-84c1.8-7.5,3.7-15.1,6.1-22.5c1-3.1,2.1-6.1,3.3-9
								c0-0.1,0.1-0.2,0.1-0.2c0.2-0.4,0.4-0.9,0.7-1.3c0.5-0.8,1.6-2.2,1.8-2.5c0.3-0.3,0.7-0.6,0.9-1c0.3-0.1,0.4-0.3,0.6-0.5
								c-0.1,0.1-0.3,0.2-0.5,0.2c-0.1,0.1-0.1,0.2-0.2,0.2c0.1-0.1,0.1-0.2,0.2-0.2c-0.3,0.1-0.5,0.1,0.1-0.2c0,0,0,0,0-0.1
								c0,0,0,0,0,0.1c0.2-0.1,0.4-0.2,0.6-0.3c0,0,0,0,0,0c0,0,0,0,0,0c0.1-0.1,0.2-0.1,0.4-0.2c1.3-0.5,2.5-1,3.8-1.6
								c0.1,0,0.1,0,0.2-0.1c0.6-0.2,1.3-0.4,1.9-0.6c1.5-0.4,3-0.8,4.5-1.2c4.1-1,8.2-2,12.2-3c10.7-2.6,21.8-5.3,32.1-9.7
								c0.6,3.3,1.3,6.5,1.9,9.8c1.2,6.2,2.1,12.7,5.1,18.4c3.2,6.1,8.5,11,13.6,15.6c6.6,6,13.3,11.5,20.9,16
								c25.5,15.1,64.8,27,71,59.9c11.8-4.8,15.9-18.1,18.3-30.1c2.9-14.8,3.4-30.3,8.6-44.5c0.7-2,2.8-3.1,4.8-2
								c19.1,11,40.8,27.3,38.3,52.1c-1.8,17.6-11.9,33.2-18.1,49.4c-3.8,10-7.3,21.1-7.9,31.9c-0.7,14.6,1.8,29.2,1.3,43.9
								c-0.2,6.9-0.9,14-3.2,20.5c-1.6,4.5-3.3,9-5,13.5c-4.2,11-8.4,22-11.7,33.3c-5.3,17.9-11.2,42.7,1.3,58.9
								c14.6-17.2,25-37.9,36.5-57.2c11.1-18.6,23.1-37.6,39.4-52.1c6.6-5.9,14-11.5,22.5-14.2c2.2-0.7,4.4-1.2,6.6-1.7
								C2571,1676.4,2585.3,1568,2579.7,1456z M1618.2,698.1c0-0.1,0.1-0.1,0.1-0.2c0.1-0.1,0.2-0.2,0.3-0.3c0,0,0,0,0,0
								c0.1-0.2,0.3-0.3,0.4-0.4c0.2-0.2,0.3-0.4,0.5-0.6c0.5-0.5,1-1,1.5-1.6c0.2-0.1,0.3-0.2,0.5-0.3c0,0,0,0,0,0
								c0.4-0.1,1.6-0.4,0.6-0.3c0.3-0.1,1-0.3,1.5-0.4c0.1,0,0.2,0,0.3,0c0,0,0,0,0.1,0c-0.3,1.1-0.4,2.3-0.3,3.5
								c-1.6,0.1-3.2,0.1-4.8,0.1C1618.7,697.7,1618.5,697.9,1618.2,698.1z M1889.6,1360.7c-0.9,1.1-2.8,1.2-4,0.5
								c-18.5-10.4-41-15.6-54.5-33.1c-7.3-9.4-11-20.5-14.7-31.6c-1.7-2.1-3.4-4.2-5.2-6.2c-12-13.1-27.4-23.4-37.6-38.2
								c-6.9-10.1-9.9-21.5-10.7-33.2c-2.5-10.7-3.8-21.8-4.7-32.6c-1.4-16.2-1.8-32.8,0-49.1c0.2-2.3,1.9-3.5,4.1-3.1
								c22.4,3.7,43.1,12.9,54.6,33.4c8.6,15.3,12,32.9,18.9,49c2.6,6.1,5.6,11.8,8.8,17.5c0.8,1,1.6,2.1,2.4,3.1
								c14.7,20,29.7,40.7,39.9,63.5C1894.9,1318.3,1903.8,1343.8,1889.6,1360.7z M2195.7,1637.3c0.1-3,0.1-5.9,0.1-8.9
								c0.9-0.4,1.8-0.8,2.7-1.3C2197.7,1630.6,2196.7,1634,2195.7,1637.3z"/>
						</g>
					</g>
				</g>
				<g>
					<path d="M1342.7,967.9C1342.7,967.9,1342.7,967.9,1342.7,967.9C1342.7,967.9,1342.7,967.9,1342.7,967.9
						C1342.6,968,1342.6,968,1342.7,967.9c0,0,0.1-0.1,0.2-0.2C1342.8,967.8,1342.7,967.9,1342.7,967.9
						C1342.7,967.9,1342.7,967.9,1342.7,967.9z"/>
					<path d="M1250.7,916c-0.2,0.1-0.4,0.2-0.6,0.3c0,0-0.1,0.1-0.1,0.1C1250.3,916.2,1250.6,916.1,1250.7,916z"/>
					<path d="M1334.5,927.4c-7-2.1-14.5-2-21.7-3.1c-4.4-0.7-8.5-2.9-13.4-6.9c-8.7-7.2-14.8-18.5-25.2-23.9
						c-13.7-7-32-1.5-42.4,9.3c-8.6,8.9-13.9,21.1-20.1,31.6c-1.1,1.9-2.9,3.9-3.7,5.9c-0.3,0.4-0.7,0.8-1,1.1c-1.8,2-3.6,4-5.4,6
						c-5.8,6.3-11.8,12.5-17.1,19.3c-5.7,7.2-10.1,14-12.2,22.7c-0.9,0.5-1.8,1-2.7,1.4c-4.7,2.3-9.5,4.4-14.2,6.6
						c-9.1,4.2-19,8.5-26.1,15.9c-7.3,7.6-9.8,17.5-4.6,27c5.9,10.6,18.6,18.2,28.5,24.4c7.3,4.6,14.6,8.6,20.8,14.5
						c4.5,4.4,9.2,7.3,15.7,7.5c17.5,0.4,29.5-11,38.7-24.3c2-2.8,3.8-5.7,5.8-8.5c2.1-3.1,3.1-4.6,4.5-6.2c0.8-0.9,1.6-1.8,2.5-2.7
						c-0.2,0.3,0.4-0.1,0.1-0.1c0,0,0-0.1,0.1-0.1c3.3-1.4,6.4-2.4,10.1-3c8.4-1.3,17-1.1,25.4-2c9.5-1.1,18.4-4,26.6-8.9
						c14.5-8.8,23.1-25,30.1-39.9c3-6.5,5.6-13.1,7.9-19.9c0.2-0.6,0.8-2.5,1-3.1c-0.4,0.4-0.5,0.4,0-0.1c0-0.1,0.1-0.1,0,0l0,0
						c0.1-0.2,0.1-0.3,0.1-0.4c0,0.2,0.2,0.2,0.6-0.3c-0.2,0.3-0.4,0.4-0.6,0.6c0.1-0.1,0.2-0.2,0.5-0.4c1.7-1.3,3.3-2.6,4.8-4.2
						C1360,950.1,1349.4,931.9,1334.5,927.4z"/>
				</g>
				<path d="M1719.9,2017.6c-1-2.6-2.7-3.9-4.7-4.4c-7-7.3-17.6-4.8-24.8,1.2c-5.5,4.6-9.9,10.3-13.7,16.4
					c-5.9,4.9-10.6,11.9-13.9,18.6c-1.9,4-3.6,8-5.2,12.1c-0.7,1.8-1.4,3.7-2.2,5.5c-0.3,0.8-0.7,1.5-1,2.3
					c-0.2,0.4-0.4,0.8-0.5,1.2c0,0.1-0.1,0.2-0.1,0.3c-0.3,0.5-0.6,1.1-0.9,1.6c-0.8,0.5-1.5,1.1-2.3,1.6c-3.6,2.3-6.6,4.8-9.3,7.7
					c-4.7,2.4-9.5,7.9-6.9,12.9c0.2,1.9,1.1,3.7,2.7,4.9c5.8,4.7,14.8,3.9,21.6,2.3c8.3-2,16.2-5.4,23.7-9.3
					c16.1-8.4,32.6-18.4,39-36.4C1725.7,2043.6,1724.5,2029.8,1719.9,2017.6z"/>
				<path d="M2273,1878.7c-0.5-1.8-1.6-3.5-3.2-4.5c-0.2-0.1-0.4-0.2-0.6-0.3c0-1.2-0.3-2.3-1.2-3.2c-1.8-1.8-4.8-1.6-7-0.6
					c-0.7,0.3-1.3,0.6-2,0.9c-1.9,0.9-3.5,2-5.1,3.3c-3.1,2.5-6,5.1-8.7,8c-0.8,0.6-1.5,1.3-2.2,2c-1.2,1.3-2.2,2.7-3,4.3
					c-1.2,2.2-2.5,5.2-1.6,7.8c0.3,0.8,0.7,1.5,1,2.3c0.7,1.1,1.7,1.9,2.9,2.3c0.8,0.5,1.6,0.7,2.5,0.7c1.4,0.3,2.8,0.3,4.3-0.1
					c3.1-0.7,5.9-2.3,8.1-4.5c0.5-0.4,1-0.7,1.6-1.1c0.3-0.1,0.6-0.1,0.9-0.2c1.7-0.4,3.3-1,4.8-1.9c2.6-1.5,5.2-3.5,6.7-6.2
					C2272.7,1884.9,2273.8,1881.7,2273,1878.7z"/>
				<g>
					<path d="M2386.2,1960.7c-3.9-5.2-10.6-4.3-16-2.4c-13.3,4.6-23.9,16.1-31.1,27.8c-0.3,0.6-0.6,1.2-1,1.7
						c-7.1,1.6-13.9,4.5-19.7,8.4c-7.7,5.2-14.2,12.7-15.8,22c-1.3,7.5,1.2,15.1,5.5,21.3c4.6,6.7,11.4,12.6,18.4,16.9
						c6.1,3.8,12.6,5.3,19.7,3.7c9.6-2.2,16.5-9.5,22.2-17.1c5-6.8,9.4-14.2,13.3-21.6C2391.4,2003.1,2400.1,1979.2,2386.2,1960.7z"
						/>
					<path d="M2349.2,2034.8C2349.2,2034.8,2349.3,2034.8,2349.2,2034.8c0.1,0.1,0.1,0.1,0.2,0.1
						C2349.3,2034.8,2349.3,2034.8,2349.2,2034.8C2349.3,2034.8,2349.2,2034.8,2349.2,2034.8z"/>
				</g>
				<path d="M1015,892.8c-0.4-1.4-1.3-2.4-2.6-3.2c-1.2-0.8-2.5-1.2-3.9-1.4c0.4-0.6,0.6-1.2,0.8-1.9c0.5-2.5-1.2-4.4-3.8-4.5
					c-3-0.1-6.1,0.2-8.9,1c-1.7,0.5-3.5,0.8-5.1,1.5c-1.8,0.7-3.6,1.8-5.3,2.9c-6.5,4.4-11,10.9-14.1,17.9c0.4-0.8,0.8-1.6,1.2-2.5
					c-1.1,2.3-2.5,4.6-3,7.1l-0.6,2.7c-0.2,1.3,0.1,2.6,0.7,3.7c0.8,1.8,2.5,3.6,4.6,4c7.2,1.4,14.4,2,21.2-1.2
					c7.5-3.4,12.7-9.5,17.4-16.1c1.2-1.8,1.8-3.8,2-5.9C1016,895.4,1015.7,894,1015,892.8z"/>
				<path d="M962.6,1540c-0.1-0.7-0.2-1.3-0.4-2c-0.1-0.3-0.2-0.7-0.4-1c-0.3-0.8-0.7-1.9-1.2-2.6c-0.4-0.6-1.5-1.8-2.2-2.1
					c-1.7-0.9-3.4-1.5-5.3-1.5c-2.8-0.1-5.5,0.9-7.8,2.2c-0.5,0.3-0.9,0.5-1.3,0.8c0.4-1.6-0.1-3.4-1.8-4.2
					c-2.4-1.1-5.4,0.1-7.1,1.9c-1.8,2-3.3,4.1-4.8,6.3c-1.4,2-2.6,4.4-3.3,6.7c-0.8,2.6-1.1,5-0.8,7.7c0.1,1.2,0.2,2.4,0.5,3.6
					c0.2,0.8,0.5,1.6,0.7,2.4c0,3.5,1.8,7,4.1,9.4c0.7,1.1,1.7,1.9,2.9,2.3c1.2,0.7,2.5,1,3.8,0.9c3.1,0,6.3-1,8.9-2.9
					c6.1-4.6,12.3-10.6,14.5-18.2C962.8,1546.3,963,1543.5,962.6,1540z"/>
			</g>
		</g>
	</g>
	<g id="CROSS" class="st1">
		<g class="st3">
			<g>
				<g>
					<polygon class="st4" points="1479.1,1021.6 1310.9,1125.8 1989.9,1194.9 2158.1,1090.8 					"/>
					<path d="M1989.9,1203.5c-0.3,0-0.6,0-0.9,0l-679-69.2c-3.6-0.4-6.6-3-7.4-6.6c-0.8-3.5,0.7-7.2,3.8-9.2l168.2-104.2
						c1.6-1,3.5-1.4,5.3-1.2l679,69.2c3.6,0.4,6.6,3,7.4,6.6c0.8,3.5-0.7,7.2-3.8,9.2l-168.2,104.2
						C1993,1203,1991.4,1203.5,1989.9,1203.5z M1336.7,1119.8l651.2,66.3l144.5-89.5l-651.2-66.3L1336.7,1119.8z"/>
				</g>
			</g>
			<g>
				<g>
					<polygon class="st4" points="1216.7,125.8 1048.4,229.9 1040.2,821.9 1208.5,717.8 					"/>
					<path d="M1040.2,830.4c-1.4,0-2.9-0.4-4.2-1.1c-2.7-1.5-4.4-4.4-4.3-7.5l8.2-592c0-2.9,1.6-5.6,4-7.1l168.2-104.2
						c2.7-1.6,6-1.7,8.7-0.2c2.7,1.5,4.4,4.4,4.3,7.5l-8.2,592c0,2.9-1.6,5.6-4,7.1l-168.2,104.2
						C1043.3,830,1041.8,830.4,1040.2,830.4z M1056.9,234.7l-7.9,571.8L1200,713l7.9-571.8L1056.9,234.7z"/>
				</g>
			</g>
			<g>
				<g>
					<polygon class="st4" points="525.5,924.5 357.2,1028.6 1036.4,1097.8 1204.7,993.7 					"/>
					<path d="M1036.4,1106.3c-0.3,0-0.6,0-0.9,0l-679.2-69.2c-3.6-0.4-6.6-3-7.4-6.6c-0.8-3.5,0.7-7.2,3.8-9.2L521,917.2
						c1.6-1,3.5-1.4,5.3-1.2l679.2,69.2c3.6,0.4,6.6,3,7.4,6.6c0.8,3.5-0.7,7.2-3.8,9.2l-168.2,104.2
						C1039.6,1105.9,1038,1106.3,1036.4,1106.3z M383,1022.7l651.4,66.4l144.5-89.5l-651.4-66.4L383,1022.7z"/>
				</g>
			</g>
			<g>
				<g>
					<polygon class="st4" points="529.3,648.6 361,752.7 357.2,1028.6 525.5,924.5 					"/>
					<path d="M357.2,1037.1c-1.4,0-2.9-0.4-4.2-1.1c-2.7-1.5-4.4-4.4-4.3-7.5l3.8-275.9c0-2.9,1.6-5.6,4-7.1l168.2-104.2
						c2.6-1.6,6-1.7,8.7-0.2c2.7,1.5,4.4,4.4,4.3,7.5L534,924.6c0,2.9-1.6,5.6-4,7.1l-168.2,104.2
						C360.3,1036.7,358.8,1037.1,357.2,1037.1z M369.5,757.5l-3.5,255.7L517,919.7l3.5-255.7L369.5,757.5z"/>
				</g>
			</g>
			<g>
				<g>
					<polygon class="st4" points="1179.8,2792.4 1011.5,2896.5 1286,2924.5 1454.2,2820.3 					"/>
					<path d="M1286,2933c-0.3,0-0.6,0-0.9,0l-274.5-28c-3.6-0.4-6.6-3-7.4-6.6c-0.8-3.5,0.7-7.2,3.8-9.2l168.2-104.2
						c1.6-1,3.5-1.4,5.3-1.2l274.5,28c3.6,0.4,6.6,3,7.4,6.6c0.8,3.6-0.7,7.2-3.8,9.2l-168.2,104.2
						C1289.1,2932.6,1287.6,2933,1286,2933z M1037.3,2890.6l246.7,25.1l144.5-89.5l-246.7-25.1L1037.3,2890.6z"/>
				</g>
			</g>
			<g>
				<g>
					<polygon class="st4" points="1204.7,993.7 1036.4,1097.8 1011.5,2896.5 1179.8,2792.4 					"/>
					<path d="M1011.5,2905c-1.4,0-2.9-0.4-4.2-1.1c-2.7-1.5-4.4-4.4-4.3-7.5l24.9-1798.7c0-2.9,1.6-5.6,4-7.1l168.2-104.2
						c2.7-1.6,6-1.7,8.7-0.2c2.7,1.5,4.4,4.4,4.3,7.5l-24.9,1798.7c0,2.9-1.6,5.6-4,7.1L1016,2903.8
						C1014.6,2904.6,1013.1,2905,1011.5,2905z M1044.9,1102.6l-24.6,1778.5l151.1-93.5l24.6-1778.5L1044.9,1102.6z"/>
				</g>
			</g>
			<g>
				<g>
					<polygon class="st4" points="1216.7,125.8 1208.5,717.8 529.3,648.6 525.5,924.5 1204.7,993.7 1179.8,2792.4 1454.2,2820.3 
						1479.1,1021.6 2158.1,1090.8 2161.9,814.9 1483,745.7 1491.2,153.7 					"/>
					<path d="M1454.2,2828.8c-0.3,0-0.6,0-0.9,0l-274.5-28c-4.4-0.4-7.7-4.2-7.6-8.6l24.8-1790.9L524.6,933
						c-4.4-0.4-7.7-4.2-7.6-8.6l3.8-275.9c0-2.4,1.1-4.7,2.9-6.2c1.8-1.6,4.1-2.3,6.5-2.1l670,68.3l8.1-582.7c0-2.4,1.1-4.7,2.9-6.2
						c1.8-1.6,4.1-2.3,6.5-2.1l274.5,28c4.4,0.4,7.7,4.2,7.6,8.6l-8.1,584.2l671.2,68.4c4.4,0.4,7.7,4.2,7.6,8.6l-3.8,275.9
						c0,2.4-1.1,4.7-2.9,6.2c-1.8,1.6-4.1,2.3-6.5,2.1l-669.7-68.2l-24.8,1789.4c0,2.4-1.1,4.7-2.9,6.2
						C1458.3,2828.1,1456.3,2828.8,1454.2,2828.8z M1188.4,2784.7l257.5,26.2l24.8-1789.4c0-2.4,1.1-4.7,2.9-6.2
						c1.8-1.6,4.2-2.3,6.5-2.1l669.7,68.2l3.6-258.8l-671.2-68.4c-4.4-0.4-7.7-4.2-7.6-8.6l8.1-584.2l-257.5-26.2l-8.1,582.7
						c0,2.4-1.1,4.7-2.9,6.2c-1.8,1.6-4.1,2.3-6.5,2.1l-670-68.3l-3.6,258.8l671.4,68.4c4.4,0.4,7.7,4.2,7.6,8.6L1188.4,2784.7z"/>
				</g>
			</g>
		</g>
	</g>
	<g class="st1">
		<path d="M1318,341.8l82.3,1.5l-4.9,261.5l-82.3-1.5L1318,341.8z"/>
		<path d="M1255.8,788.1c0.4-21.1,14.3-31.3,41.7-30.8l107.7,2c27.4,0.5,41,11.3,40.6,32.4l-1.4,76.5l-82.3-1.5l0.8-42.8
			c0-1.9-0.9-2.9-2.9-3l-19.5-0.4c-1.9,0-2.9,0.9-3,2.9l-2.4,131.4c0,1.9,0.9,2.9,2.9,3l19.5,0.4c1.9,0,2.9-0.9,3-2.9l1.1-59.9
			l82.3,1.5l-1.7,93.9c-0.2,10.5-3.7,18.2-10.6,23.1c-6.9,4.9-17.3,7.2-31.1,6.9l-107.7-2c-13.9-0.3-24.1-2.9-30.8-8.1
			c-6.7-5.1-9.9-12.9-9.8-23.5L1255.8,788.1z"/>
		<path d="M1248.7,1172.2l82.3,1.5l-1.9,100.2l2,2.1l21.2,0.4l2.1-2l1.9-100.2l82.3,1.5l-4.9,261.5l-82.3-1.5l1.9-100.2l-2-2.1
			l-21.2-0.4l-2.1,2l-1.9,100.2l-82.3-1.5L1248.7,1172.2z"/>
		<path d="M1258.4,1588.2l154.6,2.9l-1.2,62.4l-70.2-1.3l-2.1,2l-0.6,33.3l2,2.1l69.4,1.3l-1.2,62.4l-69.4-1.3l-2.1,2l-0.6,33.3
			l2,2.1l70.7,1.3l-1.2,61.9l-155-2.9L1258.4,1588.2z"/>
		<path d="M1233.2,2003.5l148.8,2.8c27.2,0.5,40.5,11.3,40.1,32.3l-1.4,77.3c-0.2,11.4-6.8,17.8-19.9,19.2l-0.1,4.2
			c6.9,1.2,11.9,3.5,15.1,6.7c3.1,3.2,4.6,7.8,4.5,13.6l-1.5,78.1c-0.2,10.5-3.7,18.2-10.6,23.1c-6.9,4.9-17.3,7.2-31.1,6.9
			l-148.8-2.8L1233.2,2003.5z M1313.9,2204.6l20.4,0.4c1.9,0,2.9-0.9,3-2.9l0.7-38.7c0-1.9-0.9-2.9-2.9-3l-20.4-0.4l-2.1,2
			l-0.7,40.3L1313.9,2204.6z M1315.7,2111.5l20.4,0.4c1.9,0,2.9-0.9,3-2.9l0.7-38.2c0-1.9-0.9-2.9-2.9-3l-20.4-0.4l-2.1,2l-0.7,39.9
			L1315.7,2111.5z"/>
		<path d="M1224.9,2450.8c0.4-21.1,14.3-31.3,41.7-30.8l107.7,2c27.4,0.5,41,11.3,40.6,32.4l-3.7,199.1
			c-0.2,10.5-3.7,18.2-10.6,23.1c-6.9,4.9-17.3,7.2-31.1,6.9l-107.7-2c-13.9-0.3-24.1-2.9-30.8-8.1c-6.7-5.1-9.9-12.9-9.8-23.5
			L1224.9,2450.8z M1307,2620.3l19.5,0.4c1.9,0,2.9-0.9,3-2.9l2.4-131.4c0-1.9-0.9-2.9-2.9-3l-19.5-0.4c-1.9,0-2.9,0.9-3,2.9
			l-2.4,131.4C1304.1,2619.3,1305.1,2620.3,1307,2620.3z"/>
	</g>
</g>
<g id="BLACK" class="st0">
	<g id="GLOBAL_00000158013799295331303210000015026790692609065623_" class="st1">
		<g>
			<g>
				
					<ellipse transform="matrix(0.7071 -0.7071 0.7071 0.7071 -581.1349 1606.0254)" class="st5" cx="1648.1" cy="1504.5" rx="932.8" ry="932.8"/>
				<g>
					<path class="st4" d="M927,2027.4c4.4-10.7,9.6-21.1,14.1-31.7c2.3-5.4,5.1-11.7,4.3-17.8c-0.9-6.4-5.9-11.9-10-16.6
						c-8.4-9.6-17.3-18.7-25.9-28c-19.5-21.1-39.8-41.5-57.8-63.9c-8.9-11.1-17.3-22.7-24.5-34.9c-3.6-6-6.8-12.2-9.8-18.5
						c-2.9-6.3-5.8-12.7-7-19.5c-2.1-11.8,1-25.2-4.8-36.2c-5.7-10.8-16.7-15.8-28-18.7c-10.7-2.7-22.1-3.6-33.3-5.2
						c33.1,129.7,93.2,248,173.6,349C917.1,2065.5,919.4,2045.9,927,2027.4z"/>
					<path class="st4" d="M1224.1,678.7c-16.2,20.8-25.9,45.8-41.6,66.9c-4,5.4-8.2,10.2-13.7,14.2c-4.9,3.6-10.4,6.2-15.8,9.1
						c-5.6,3.1-11.2,6.5-15,11.8c-3.6,4.9-7.2,9.7-10.1,15.1c-11.4,21.8-13.9,46.8-19.4,70.4c17,2.9,34.7,4.4,51.7,0.8
						c24.3-5.1,41.6-21.2,54.9-41.4c15.5-23.4,27.2-49,42.7-72.3c0.9-1.3,2.2-1.8,3.7-1.5c20.3,3.8,39.6-11.7,54.9-22.8
						c8.5-6.1,16.9-12.5,26.1-17.6c8.5-4.7,17.3-7,27-8c19.6-1.9,39.3,0.7,58.8,0.6c16.4,0,36.6-1.2,48.2-14.5
						c11.1-12.7,16.1-29.7,27.2-42.4c3.3-3.8,8-6.6,12.1-9.4c4.5-3,9.1-5.8,13.8-8.4c9.9-5.5,20.2-10.2,30.6-14.6
						c21.7-9.1,43.9-17,66.4-23.8c18.9-5.8,37.7-12,56.3-18.7c-27.1-1-54.5-0.9-82.1,0.5c-132.6,6.7-257.3,40.8-369,96.5
						C1229.3,672.4,1226.6,675.5,1224.1,678.7z"/>
					<g>
						<path class="st4" d="M2239.7,1574.4c0,0.1-0.1,0.1-0.1,0.2c0,0,0,0,0,0C2239.6,1574.5,2239.6,1574.5,2239.7,1574.4
							C2239.7,1574.4,2239.7,1574.4,2239.7,1574.4z"/>
						<path class="st4" d="M2240,1574.4c0.1-0.1,0.2-0.2,0.3-0.2c0,0,0,0,0,0C2240.2,1574.2,2240.1,1574.3,2240,1574.4z"/>
						<g>
							<path class="st4" d="M1619,698.6c-0.1,0.1-0.2,0.3-0.3,0.4c0,0,0.1,0,0.1,0C1619.3,698.5,1619.2,698.4,1619,698.6z"/>
							<path class="st4" d="M2579.7,1457.5c-15.3-302.9-173.5-564.7-406-723.6c-13.2,2-26.1,5.4-39.1,10
								c-18.7,6.6-37.7,15-57.6,17.6c-17,2.2-35.3,0.7-51.1-6.2c-15-6.6-28.8-18.2-39.1-30.9c-3-3.7-5.5-7.6-7.6-11.9
								c-1.3-2.7-2.3-5.9-4.2-8.3c-5.9-7.6-21.8-6.8-30.1-7.4c-16.8-1.2-33.2,2.7-49.9,2.6c-17-0.1-33.3-7-47.9-15.3
								c-11.3-6.4-21.7-16.3-33.8-21.1c-14.2-5.7-32.2-0.6-46.4,2.8c-35.6,8.3-70.5,22.4-107.7,21.4c-6.3-0.2-13.8-1.1-20.7-0.5
								c-1.5-1.8-3.1-3.4-5.2-4.6c-5.7-3.1-11.7-2.7-17.7-0.6c-11.7,4.1-20.5,15.6-23.3,27.5c-1,3.9-0.1,9.5,4.8,10.3
								c9.5,1.7,19.1,1.9,28.7,1.2c5.3-0.4,10.8-0.7,16-1.8c1.8-0.4,3.5-1,5.3-1.6c34.8-2.7,71.7,2.3,100.7,22
								c7.2,4.9,13.4,8.7,22.3,9.4c10.3,0.8,19-0.3,28.5-4.4c15-6.5,28.6-14.1,45.2-8.3c1.6,0.5,2.9,2.3,2.3,4
								c-8.3,22.9-7.3,48.2,12.2,65.1c1.2,1.1,1.3,3.6,0,4.6c-10.9,8.7-23.9,11.5-37.4,13.3c-7.4,1-14.9,1.6-22.1,3.4
								c-7.6,1.9-13.6,5.8-19.8,10.4c-7.3,5.4-13.5,12.3-20.8,17.7c-7.6,5.7-16.8,8-26,9.8c-24.5,4.7-51.4,8.7-76.1,3.1
								c-22.3-5.1-39.9-18.3-56.9-32.8c-6.5-5.5-12.9-10.9-20.4-15c-9.4-5.2-19.8-8.1-30.2-10.5c-12.4-2.8-25.2-6-37.9-7.4
								c-7.4-0.8-14.1,0-20.9,3.2c-20.8,9.9-37.6,26.1-55.5,40.1c-17.7,13.8-39.2,20-61,24.3c-20.7,4-43.1,5.3-55.2,25.5
								c-6,10-8.8,22.4-11.8,33.5c-3,11-5.6,22.1-9,33c13.1,4.1,25.2,11.2,38.1,16.1c7.9,3,16.4,2.9,24.6,5.1
								c2.4,0.6,9.5,3.9,10.7,3.4c1.3-0.6,2.5-4.4,3.2-5.6c2.2-3.7,4.9-7.5,9.1-9.3c5-2.1,10.4,0,15.3,1.3
								c9.3,2.3,18.9,5.3,26.6,11.1c13.3,10.1,15.7,27.5,19.2,42.7c5.4,23.4,14.1,46.1,22.2,68.8c3.1,4.8,6.3,9.5,9.4,14.3
								c3.7,5.9,7.4,11.8,10.6,18c2.1,4,5.6,9.1,5.3,13.8c-0.7,9.2-2.5,18.4-4.4,27.5c0.6,3.4,1.2,6.9,1.7,10.3
								c6.5,3.8,14.3,6.6,20.2,1.7c6.3-5.2,8.3-14.8,9.7-22.4c1.8-10,2.1-20.2,2.1-30.3c-2.7-7.9-5.9-15.7-9-23.2
								c-15-36.5-36.4-71.4-42.8-110.9c-0.4-2.6,2.1-5.3,4.8-3.7c37.4,23,54.7,65.8,88.1,92.9c10.6,8.7,23.2,17.5,30.6,29.4
								c-1,5.9-0.8,12.1-0.6,17.7c0.4,11.8,1.2,23.8,3.4,35.4c5.7,29.6,32,46.4,44.9,72.1c3.9,7.8,15.8,1.5,19.7-2.1
								c9.2-8.4,11.6-20.2,9.2-32c-2.1-10.1-7.4-19.2-9.5-29.3c-0.4-2.1-0.6-4.1-0.4-6.2c0-0.7,0.1-1.5,0.2-2.2
								c0.5-0.3,1.1-0.7,1.6-0.9c1.6-0.7,3.1-1.5,4.6-2.3c11.9,4.8,23.1,11.4,33.3,18.9c10.8,8,23.7,18.8,26.3,32.8
								c1.8,9.8-0.6,19.8-1.3,29.6c-0.8,12.6,2.8,23.5,10.8,33.3c12.8,15.7,34.2,21.2,48.6,35.2c1,1,1.3,2.7,0.5,4
								c-21.9,34.9-33.2,78.3-69.5,102c-1.6,1.1-4.4,0.1-4.8-1.9c-4.6-27.2-29.9-50-50.8-65.7c-12.3-9.2-25.8-17.5-40.1-23.2
								c-11.1-4.5-23.7-8.2-35.8-6.3c-11.6,1.8-21,10.4-29.3,18.2c-9.4,8.8-18.2,18.4-28.5,26.2c-17.3,13.1-40.7,16.6-54.5-3
								c-6.8-9.7-10.6-21.2-16.3-31.5c-2.9-5.3-6.1-10.4-10.6-14.5c-6.7-6.2-17.3-5.8-25.9-5.6c-14.1,0.5-27.4,1-36.8-11.2
								c-7.3-9.5-8.4-22.1-9.4-33.7c-1.1-12.1-1-28.3-12.3-35.8c-11.9-7.9-27.7-6.8-41.2-5.3c-29.3,3.3-57.9,11.7-86.3-0.5
								c-6.8-2.9-10.3-6.9-14.3-12.9c-7.1-11-18.8-18.1-29.8-24.7c-6-3.6-12.5-7-19.1-7.2c-12.5,4.1-23.4,11.3-30.9,22.6
								c-15.5,23.2-16.9,52.8-29.2,77.5c-7.3,14.8-18.3,25.1-31,35.3c-12.3,9.9-25.2,19.1-38.2,28.2c-18.5,12.9-38.7,25.9-48.1,47.4
								c-12.7,28.9-5,60.9-7.4,91.2c-2.8,36.3-12.4,72.2-11.5,108.7c0.2,7.9,1,15.8,3.2,23.3c1.9,6.6,5.8,11.6,10.5,16.5
								c11.8,12.3,26.2,22,40.3,31.3c14.3,9.4,28.9,18.2,43.1,27.8c13.6,9.2,25.7,20.2,38.7,30.2c5.4,4.1,11.2,8,17.9,9.5
								c8.3,1.9,17-0.1,25-2.7c16.6-5.3,26.3-17.7,37.8-29.7c9.4-9.8,23.5-16.1,37.3-14.1c11.1,1.5,22.3,7.2,32.5,11.6
								c14.8,6.4,29.3,13.5,43.4,21.4c10.3,5.8,20.6,11.8,29.3,19.8c12.1,11,20.8,24.3,21.3,41.1c0.1,1.8,0,3.5-0.1,5.2
								c-1.8,0.3-3.7,1.4-4.4,2.6c-9.7,17.2-16.6,35.4-20.7,54.6c-2.1,9.8-2.8,19.5-1.5,29.5c1.3,10.5,6.2,20.5,10.6,30
								c4.4,9.6,8.4,20.6,14.8,29.1c5.8,7.7,13.3,14,19.6,21.3c5.1,6,8,12.2,5.4,19.5c-2.7,7.3-5.4,14.2-2.6,22
								c1.8,4.9,4.7,9.4,8.4,13c3.6,3.5,7.8,5.1,12.1,7.4c1.4,0.8,2.8,1.5,4,2.5c0.3,1.1,0.9,2,2,2.8c0.2,0.5,0.4,0.9,0.5,1.4
								c0.6,4.9-1.3,9.5,0.4,14.6c6.3,19.4,29.2,25.4,42,39.1c15.6,16.7,21.3,40.8,34.7,59.1c5.3,7.3,12.2,15.1,21.7,15.9
								c9.5,0.8,17.8-5,23.2-12.4c3.6-1.5,7.1-3.9,10-6.6c4.4-4.1,7.5-9.4,11.6-13.8c2.2-2.4,1.5-1.6,4.3-3.8c2.9-2.2,6-4.2,9.1-6.1
								c13.2-8.4,27.6-17.3,33.7-32.5c3.3-8.1,3-16.8,1.1-25.2c-0.9-3.7-2.2-7.5-3.2-11.3c3.2-4.6,6.3-9.2,9.8-13.3
								c1.7-2,3.2-4.6,3.8-7.3c5.5-4,11.3-7.6,17.2-11.1c1.7-0.5,3.5-1,5.9-1.7c11.8-3.2,22.7-5.4,34.7-6.6
								c15.8-1.6,30.4-9.4,37.9-23.9c3-5.8,4.1-12,5.1-18.2c20.7-17.6,38.7-38.5,58.5-57.1c13.7-12.8,28.1-24.9,43.4-35.8
								c11.6-8.4,23.9-15.6,36-23c3.1,1.4,6.3,2.9,10,3c10.1,0.3,20.8-5,27.9-11.9c5.2-5,8.2-11.3,11.5-17.6
								c9.3-17.9,27.4-29.3,39-45.7c2.6-3.6,3-10.2-1.3-12.8c-18.3-11.1-41.6-10.9-62.3-9.2c-9.2,0.8-17.5,3.8-26.2,6.5
								c-0.6,0.2-1.2,0.4-1.8,0.5c-32.4-17.3-59.4-53.4-53.3-91.3c2-12.2,6.4-23.8,9.9-35.6c0.7-2.4,1.3-4.8,1.8-7.1
								c-2.1-5.4-4.9-10.4-8.8-14.7c-4.7-5.1-10.9-8.4-15.2-13.8c-5-6.1-6.7-13.1-5.5-20.9c1.2-8.4,4.7-16.1,6.9-24.2
								c2.4-8.8,2-17.3-0.9-26c-4.9-15.2-16.8-26.4-27-38.2c-1.7-2-0.7-5.8,2.3-5.6c19.5,1.6,39.7,6.2,54.1,20.3
								c0.5,0.5,1,1.1,1.5,1.6c1.4,0.2,2.8,1.2,3,3.1c0,0.1,0,0.2,0,0.3c8.7,10.6,13.9,23.9,18,36.9c3,9.5,6,19.3,7.5,29.2
								c1.8,11.8,2.8,23.7,4.3,35.5c1.5,11.7,3.4,23.7,7.7,34.8c1.9,4.8,4.4,9.2,7.4,13.3c13.8,12.5,31.9,19.7,47.6,29.4
								c9.1,5.6,17.8,12,26,18.8c5.3,4.4,10.4,9.4,16.1,13.2c12.1,8,24.8-0.8,35.4-7.6c10.9-7,21.8-14.3,32.1-22.1
								c10.6-8,20.6-16.7,31.4-24.4c6.8-4.8,14.1-9.3,21.8-12.6c1.6-1.5,3.3-2.9,5-4.2c-13.5-7.2-22.3-18.7-29.5-32.4
								c-6.3-11.9-12.6-26.4-25.5-32.4c-14.1-6.5-33.1-3.1-43.5-16.8c-3.7-5-6.7-10.5-9.1-16.3c-4.3-7-7.7-14.6-10.5-22.1
								c-6.5-17.5-9.8-36.2-10.5-54.8c-1.3-37.3,8.7-78.7,38.7-103.3c6.2-5.1,12.1-8.7,20.4-7.4c7.5,1.2,14.6,5.4,22.3,3.8
								c6-1.3,12.7-6.2,15.7-11.6c2.9-5.3,2.7-12,2-17.8c-1-8.6-4.1-18,0.3-26.1c9-16.6,27.7-26,44.3-33c20-8.5,41-14.5,60.9-23.4
								c1.6-0.7,3.5-0.5,4.5,1.2c3.3,5.7,5.7,11.7,7.8,17.9c11.1,4.9,12.8,25.7,13,36.7c0.5,21.2-2.3,42.3-4,63.3
								c-0.3,3.3-0.5,6.6-0.5,9.9c0,0.7,0,1.4,0.1,2.1c0.1,0.8,0.1,0.5,0.1,0.6c0.5,3,1.5,5.9,2.5,8.8c4.7,13.2,13.3,24.1,21.1,35.6
								c7.1,10.4,12.6,21.6,13,34.5c0.5,16-5.9,32.2-13.5,46c-6.2,11.4-14.7,22.2-18.4,34.8c-0.4,1.4-0.7,2.9-0.9,4.3
								c-2.1,5.3-3.2,10.8-2.5,16.4c0.7,5.7,2.5,11.2,3.5,16.9c1.1,6.5,1.7,13.2,2.2,19.8c1.1,15.3,1.3,30.7,0.6,46.1
								c-0.4,8.7-1.1,17.4-2.4,26c-0.5,3.3-1.2,6.6-2.1,9.9c-0.5,1.6-1,3.3-1.6,4.9c-0.3,0.9-2.1,4.7-1.2,3.1
								c-3.7,7.2,0,16.2,9.4,13.5c35.6-10.3,44.8-52.5,52.3-84c1.8-7.5,3.7-15.1,6.1-22.5c1-3.1,2.1-6.1,3.3-9
								c0-0.1,0.1-0.2,0.1-0.2c0.2-0.4,0.4-0.9,0.7-1.3c0.5-0.8,1.6-2.2,1.8-2.5c0.3-0.3,0.7-0.6,0.9-1c0.3-0.1,0.4-0.3,0.6-0.5
								c-0.1,0.1-0.3,0.2-0.5,0.2c-0.1,0.1-0.1,0.2-0.2,0.2c0.1-0.1,0.1-0.2,0.2-0.2c-0.3,0.1-0.5,0.1,0.1-0.2c0,0,0,0,0-0.1
								c0,0,0,0,0,0.1c0.2-0.1,0.4-0.2,0.6-0.3c0,0,0,0,0,0c0,0,0,0,0,0c0.1-0.1,0.2-0.1,0.4-0.2c1.3-0.5,2.5-1,3.8-1.6
								c0.1,0,0.1,0,0.2-0.1c0.6-0.2,1.3-0.4,1.9-0.6c1.5-0.4,3-0.8,4.5-1.2c4.1-1,8.2-2,12.2-3c10.7-2.6,21.8-5.3,32.1-9.7
								c0.6,3.3,1.3,6.5,1.9,9.8c1.2,6.2,2.1,12.7,5.1,18.4c3.2,6.1,8.5,11,13.6,15.6c6.6,6,13.3,11.5,20.9,16
								c25.5,15.1,64.8,27,71,59.9c11.8-4.8,15.9-18.1,18.3-30.1c2.9-14.8,3.4-30.3,8.6-44.5c0.7-2,2.8-3.1,4.8-2
								c19.1,11,40.8,27.3,38.3,52.1c-1.8,17.6-11.9,33.2-18.1,49.4c-3.8,10-7.3,21.1-7.9,31.9c-0.7,14.6,1.8,29.2,1.3,43.9
								c-0.2,6.9-0.9,14-3.2,20.5c-1.6,4.5-3.3,9-5,13.5c-4.2,11-8.4,22-11.7,33.3c-5.3,17.9-11.2,42.7,1.3,58.9
								c14.6-17.2,25-37.9,36.5-57.2c11.1-18.6,23.1-37.6,39.4-52.1c6.6-5.9,14-11.5,22.5-14.2c2.2-0.7,4.4-1.2,6.6-1.7
								C2571,1677.9,2585.3,1569.5,2579.7,1457.5z M1618.2,699.5c0-0.1,0.1-0.1,0.1-0.2c0.1-0.1,0.2-0.2,0.3-0.3c0,0,0,0,0,0
								c0.1-0.2,0.3-0.3,0.4-0.4c0.2-0.2,0.3-0.4,0.5-0.6c0.5-0.5,1-1,1.5-1.6c0.2-0.1,0.3-0.2,0.5-0.3c0,0,0,0,0,0
								c0.4-0.1,1.6-0.4,0.6-0.3c0.3-0.1,1-0.3,1.5-0.4c0.1,0,0.2,0,0.3,0c0,0,0,0,0.1,0c-0.3,1.1-0.4,2.3-0.3,3.5
								c-1.6,0.1-3.2,0.1-4.8,0.1C1618.7,699.2,1618.5,699.3,1618.2,699.5z M1889.6,1362.2c-0.9,1.1-2.8,1.2-4,0.5
								c-18.5-10.4-41-15.6-54.5-33.1c-7.3-9.4-11-20.5-14.7-31.6c-1.7-2.1-3.4-4.2-5.2-6.2c-12-13.1-27.4-23.4-37.6-38.2
								c-6.9-10.1-9.9-21.5-10.7-33.2c-2.5-10.7-3.8-21.8-4.7-32.6c-1.4-16.2-1.8-32.8,0-49.1c0.2-2.3,1.9-3.5,4.1-3.1
								c22.4,3.7,43.1,12.9,54.6,33.4c8.6,15.3,12,32.9,18.9,49c2.6,6.1,5.6,11.8,8.8,17.5c0.8,1,1.6,2.1,2.4,3.1
								c14.7,20,29.7,40.7,39.9,63.5C1894.9,1319.8,1903.8,1345.3,1889.6,1362.2z M2195.7,1638.8c0.1-3,0.1-5.9,0.1-8.9
								c0.9-0.4,1.8-0.8,2.7-1.3C2197.7,1632.1,2196.7,1635.5,2195.7,1638.8z"/>
						</g>
					</g>
				</g>
				<g>
					<path class="st4" d="M1342.7,969.4C1342.7,969.4,1342.7,969.4,1342.7,969.4C1342.7,969.4,1342.7,969.4,1342.7,969.4
						C1342.6,969.4,1342.6,969.5,1342.7,969.4c0,0,0.1-0.1,0.2-0.2C1342.8,969.3,1342.7,969.4,1342.7,969.4
						C1342.7,969.4,1342.7,969.4,1342.7,969.4z"/>
					<path class="st4" d="M1250.7,917.5c-0.2,0.1-0.4,0.2-0.6,0.3c0,0-0.1,0.1-0.1,0.1C1250.3,917.7,1250.6,917.6,1250.7,917.5z"/>
					<path class="st4" d="M1334.5,928.9c-7-2.1-14.5-2-21.7-3.1c-4.4-0.7-8.5-2.9-13.4-6.9c-8.7-7.2-14.8-18.5-25.2-23.9
						c-13.7-7-32-1.5-42.4,9.3c-8.6,8.9-13.9,21.1-20.1,31.6c-1.1,1.9-2.9,3.9-3.7,5.9c-0.3,0.4-0.7,0.8-1,1.1c-1.8,2-3.6,4-5.4,6
						c-5.8,6.3-11.8,12.5-17.1,19.3c-5.7,7.2-10.1,14-12.2,22.7c-0.9,0.5-1.8,1-2.7,1.4c-4.7,2.3-9.5,4.4-14.2,6.6
						c-9.1,4.2-19,8.5-26.1,15.9c-7.3,7.6-9.8,17.5-4.6,27c5.9,10.6,18.6,18.2,28.5,24.4c7.3,4.6,14.6,8.6,20.8,14.5
						c4.5,4.4,9.2,7.3,15.7,7.5c17.5,0.4,29.5-11,38.7-24.3c2-2.8,3.8-5.7,5.8-8.5c2.1-3.1,3.1-4.6,4.5-6.2c0.8-0.9,1.6-1.8,2.5-2.7
						c-0.2,0.3,0.4-0.1,0.1-0.1c0,0,0-0.1,0.1-0.1c3.3-1.4,6.4-2.4,10.1-3c8.4-1.3,17-1.1,25.4-2c9.5-1.1,18.4-4,26.6-8.9
						c14.5-8.8,23.1-25,30.1-39.9c3-6.5,5.6-13.1,7.9-19.9c0.2-0.6,0.8-2.5,1-3.1c-0.4,0.4-0.5,0.4,0-0.1c0-0.1,0.1-0.1,0,0l0,0
						c0.1-0.2,0.1-0.3,0.1-0.4c0,0.2,0.2,0.2,0.6-0.3c-0.2,0.3-0.4,0.4-0.6,0.6c0.1-0.1,0.2-0.2,0.5-0.4c1.7-1.3,3.3-2.6,4.8-4.2
						C1360,951.6,1349.4,933.4,1334.5,928.9z"/>
				</g>
				<path class="st4" d="M1719.9,2019.1c-1-2.6-2.7-3.9-4.7-4.4c-7-7.3-17.6-4.8-24.8,1.2c-5.5,4.6-9.9,10.3-13.7,16.4
					c-5.9,4.9-10.6,11.9-13.9,18.6c-1.9,4-3.6,8-5.2,12.1c-0.7,1.8-1.4,3.7-2.2,5.5c-0.3,0.8-0.7,1.5-1,2.3
					c-0.2,0.4-0.4,0.8-0.5,1.2c0,0.1-0.1,0.2-0.1,0.3c-0.3,0.5-0.6,1.1-0.9,1.6c-0.8,0.5-1.5,1.1-2.3,1.6c-3.6,2.3-6.6,4.8-9.3,7.7
					c-4.7,2.4-9.5,7.9-6.9,12.9c0.2,1.9,1.1,3.7,2.7,4.9c5.8,4.7,14.8,3.9,21.6,2.3c8.3-2,16.2-5.4,23.7-9.3
					c16.1-8.4,32.6-18.4,39-36.4C1725.7,2045,1724.5,2031.3,1719.9,2019.1z"/>
				<path class="st4" d="M2273,1880.2c-0.5-1.8-1.6-3.5-3.2-4.5c-0.2-0.1-0.4-0.2-0.6-0.3c0-1.2-0.3-2.3-1.2-3.2
					c-1.8-1.8-4.8-1.6-7-0.6c-0.7,0.3-1.3,0.6-2,0.9c-1.9,0.9-3.5,2-5.1,3.3c-3.1,2.5-6,5.1-8.7,8c-0.8,0.6-1.5,1.3-2.2,2
					c-1.2,1.3-2.2,2.7-3,4.3c-1.2,2.2-2.5,5.2-1.6,7.8c0.3,0.8,0.7,1.5,1,2.3c0.7,1.1,1.7,1.9,2.9,2.3c0.8,0.5,1.6,0.7,2.5,0.7
					c1.4,0.3,2.8,0.3,4.3-0.1c3.1-0.7,5.9-2.3,8.1-4.5c0.5-0.4,1-0.7,1.6-1.1c0.3-0.1,0.6-0.1,0.9-0.2c1.7-0.4,3.3-1,4.8-1.9
					c2.6-1.5,5.2-3.5,6.7-6.2C2272.7,1886.3,2273.8,1883.2,2273,1880.2z"/>
				<g>
					<path class="st4" d="M2386.2,1962.2c-3.9-5.2-10.6-4.3-16-2.4c-13.3,4.6-23.9,16.1-31.1,27.8c-0.3,0.6-0.6,1.2-1,1.7
						c-7.1,1.6-13.9,4.5-19.7,8.4c-7.7,5.2-14.2,12.7-15.8,22c-1.3,7.5,1.2,15.1,5.5,21.3c4.6,6.7,11.4,12.6,18.4,16.9
						c6.1,3.8,12.6,5.3,19.7,3.7c9.6-2.2,16.5-9.5,22.2-17.1c5-6.8,9.4-14.2,13.3-21.6C2391.4,2004.6,2400.1,1980.7,2386.2,1962.2z"
						/>
					<path class="st4" d="M2349.2,2036.3C2349.2,2036.3,2349.3,2036.3,2349.2,2036.3c0.1,0.1,0.1,0.1,0.2,0.1
						C2349.3,2036.3,2349.3,2036.3,2349.2,2036.3C2349.3,2036.3,2349.2,2036.3,2349.2,2036.3z"/>
				</g>
				<path class="st4" d="M1015,894.3c-0.4-1.4-1.3-2.4-2.6-3.2c-1.2-0.8-2.5-1.2-3.9-1.4c0.4-0.6,0.6-1.2,0.8-1.9
					c0.5-2.5-1.2-4.4-3.8-4.5c-3-0.1-6.1,0.2-8.9,1c-1.7,0.5-3.5,0.8-5.1,1.5c-1.8,0.7-3.6,1.8-5.3,2.9c-6.5,4.4-11,10.9-14.1,17.9
					c0.4-0.8,0.8-1.6,1.2-2.5c-1.1,2.3-2.5,4.6-3,7.1l-0.6,2.7c-0.2,1.3,0.1,2.6,0.7,3.7c0.8,1.8,2.5,3.6,4.6,4
					c7.2,1.4,14.4,2,21.2-1.2c7.5-3.4,12.7-9.5,17.4-16.1c1.2-1.8,1.8-3.8,2-5.9C1016,896.9,1015.7,895.5,1015,894.3z"/>
				<path class="st4" d="M962.6,1541.4c-0.1-0.7-0.2-1.3-0.4-2c-0.1-0.3-0.2-0.7-0.4-1c-0.3-0.8-0.7-1.9-1.2-2.6
					c-0.4-0.6-1.5-1.8-2.2-2.1c-1.7-0.9-3.4-1.5-5.3-1.5c-2.8-0.1-5.5,0.9-7.8,2.2c-0.5,0.3-0.9,0.5-1.3,0.8
					c0.4-1.6-0.1-3.4-1.8-4.2c-2.4-1.1-5.4,0.1-7.1,1.9c-1.8,2-3.3,4.1-4.8,6.3c-1.4,2-2.6,4.4-3.3,6.7c-0.8,2.6-1.1,5-0.8,7.7
					c0.1,1.2,0.2,2.4,0.5,3.6c0.2,0.8,0.5,1.6,0.7,2.4c0,3.5,1.8,7,4.1,9.4c0.7,1.1,1.7,1.9,2.9,2.3c1.2,0.7,2.5,1,3.8,0.9
					c3.1,0,6.3-1,8.9-2.9c6.1-4.6,12.3-10.6,14.5-18.2C962.8,1547.8,963,1545,962.6,1541.4z"/>
			</g>
		</g>
	</g>
	<g id="CROSS_00000023960126953987683350000004797942029355044763_" class="st1">
		<g class="st3">
			<g>
				<g>
					<polygon points="1479.1,1023.1 1310.9,1127.3 1989.9,1196.4 2158.1,1092.3 					"/>
					<path class="st4" d="M1989.9,1204.9c-0.3,0-0.6,0-0.9,0l-679-69.2c-3.6-0.4-6.6-3-7.4-6.6c-0.8-3.5,0.7-7.2,3.8-9.2
						l168.2-104.2c1.6-1,3.5-1.4,5.3-1.2l679,69.2c3.6,0.4,6.6,3,7.4,6.6c0.8,3.5-0.7,7.2-3.8,9.2l-168.2,104.2
						C1993,1204.5,1991.4,1204.9,1989.9,1204.9z M1336.7,1121.3l651.2,66.3l144.5-89.5l-651.2-66.3L1336.7,1121.3z"/>
				</g>
			</g>
			<g>
				<g>
					<polygon points="1216.7,127.2 1048.4,231.4 1040.2,823.4 1208.5,719.2 					"/>
					<path class="st4" d="M1040.2,831.9c-1.4,0-2.9-0.4-4.2-1.1c-2.7-1.5-4.4-4.4-4.3-7.5l8.2-592c0-2.9,1.6-5.6,4-7.1L1212.2,120
						c2.7-1.6,6-1.7,8.7-0.2c2.7,1.5,4.4,4.4,4.3,7.5l-8.2,592c0,2.9-1.6,5.6-4,7.1l-168.2,104.2
						C1043.3,831.5,1041.8,831.9,1040.2,831.9z M1056.9,236.2L1049,808l151.1-93.5l7.9-571.8L1056.9,236.2z"/>
				</g>
			</g>
			<g>
				<g>
					<polygon points="525.5,926 357.2,1030.1 1036.4,1099.3 1204.7,995.2 					"/>
					<path class="st4" d="M1036.4,1107.8c-0.3,0-0.6,0-0.9,0l-679.2-69.2c-3.6-0.4-6.6-3-7.4-6.6c-0.8-3.5,0.7-7.2,3.8-9.2
						L521,918.7c1.6-1,3.5-1.4,5.3-1.2l679.2,69.2c3.6,0.4,6.6,3,7.4,6.6c0.8,3.5-0.7,7.2-3.8,9.2l-168.2,104.2
						C1039.6,1107.4,1038,1107.8,1036.4,1107.8z M383,1024.2l651.4,66.4l144.5-89.5l-651.4-66.4L383,1024.2z"/>
				</g>
			</g>
			<g>
				<g>
					<polygon points="529.3,650.1 361,754.2 357.2,1030.1 525.5,926 					"/>
					<path class="st4" d="M357.2,1038.6c-1.4,0-2.9-0.4-4.2-1.1c-2.7-1.5-4.4-4.4-4.3-7.5l3.8-275.9c0-2.9,1.6-5.6,4-7.1
						l168.2-104.2c2.6-1.6,6-1.7,8.7-0.2c2.7,1.5,4.4,4.4,4.3,7.5L534,926.1c0,2.9-1.6,5.6-4,7.1l-168.2,104.2
						C360.3,1038.2,358.8,1038.6,357.2,1038.6z M369.5,759l-3.5,255.7L517,921.2l3.5-255.7L369.5,759z"/>
				</g>
			</g>
			<g>
				<g>
					<polygon points="1179.8,2793.9 1011.5,2898 1286,2926 1454.2,2821.8 					"/>
					<path class="st4" d="M1286,2934.5c-0.3,0-0.6,0-0.9,0l-274.5-28c-3.6-0.4-6.6-3-7.4-6.6c-0.8-3.5,0.7-7.2,3.8-9.2l168.2-104.2
						c1.6-1,3.5-1.4,5.3-1.2l274.5,28c3.6,0.4,6.6,3,7.4,6.6c0.8,3.6-0.7,7.2-3.8,9.2l-168.2,104.2
						C1289.1,2934,1287.6,2934.5,1286,2934.5z M1037.3,2892.1l246.7,25.1l144.5-89.5l-246.7-25.1L1037.3,2892.1z"/>
				</g>
			</g>
			<g>
				<g>
					<polygon points="1204.7,995.2 1036.4,1099.3 1011.5,2898 1179.8,2793.9 					"/>
					<path class="st4" d="M1011.5,2906.5c-1.4,0-2.9-0.4-4.2-1.1c-2.7-1.5-4.4-4.4-4.3-7.5l24.9-1798.7c0-2.9,1.6-5.6,4-7.1
						l168.2-104.2c2.7-1.6,6-1.7,8.7-0.2c2.7,1.5,4.4,4.4,4.3,7.5L1188.3,2794c0,2.9-1.6,5.6-4,7.1L1016,2905.3
						C1014.6,2906.1,1013.1,2906.5,1011.5,2906.5z M1044.9,1104.1l-24.6,1778.5l151.1-93.5l24.6-1778.5L1044.9,1104.1z"/>
				</g>
			</g>
			<g>
				<g>
					<polygon points="1216.7,127.2 1208.5,719.2 529.3,650.1 525.5,926 1204.7,995.2 1179.8,2793.9 1454.2,2821.8 1479.1,1023.1 
						2158.1,1092.3 2161.9,816.4 1483,747.2 1491.2,155.2 					"/>
					<path class="st4" d="M1454.2,2830.3c-0.3,0-0.6,0-0.9,0l-274.5-28c-4.4-0.4-7.7-4.2-7.6-8.6l24.8-1790.9l-671.4-68.4
						c-4.4-0.4-7.7-4.2-7.6-8.6l3.8-275.9c0-2.4,1.1-4.7,2.9-6.2c1.8-1.6,4.1-2.3,6.5-2.1l670,68.3l8.1-582.7c0-2.4,1.1-4.7,2.9-6.2
						c1.8-1.6,4.1-2.3,6.5-2.1l274.5,28c4.4,0.4,7.7,4.2,7.6,8.6l-8.1,584.2l671.2,68.4c4.4,0.4,7.7,4.2,7.6,8.6l-3.8,275.9
						c0,2.4-1.1,4.7-2.9,6.2c-1.8,1.6-4.1,2.3-6.5,2.1l-669.7-68.2l-24.8,1789.4c0,2.4-1.1,4.7-2.9,6.2
						C1458.3,2829.6,1456.3,2830.3,1454.2,2830.3z M1188.4,2786.2l257.5,26.2l24.8-1789.4c0-2.4,1.1-4.7,2.9-6.2
						c1.8-1.6,4.2-2.3,6.5-2.1l669.7,68.2l3.6-258.8l-671.2-68.4c-4.4-0.4-7.7-4.2-7.6-8.6l8.1-584.2l-257.5-26.2l-8.1,582.7
						c0,2.4-1.1,4.7-2.9,6.2c-1.8,1.6-4.1,2.3-6.5,2.1l-670-68.3l-3.6,258.8l671.4,68.4c4.4,0.4,7.7,4.2,7.6,8.6L1188.4,2786.2z"/>
				</g>
			</g>
		</g>
	</g>
	<g class="st1">
		<path class="st4" d="M1310.7,340.4l82.3,1.5l-4.9,261.5l-82.3-1.5L1310.7,340.4z"/>
		<path class="st4" d="M1248.5,786.6c0.4-21.1,14.3-31.3,41.7-30.8l107.7,2c27.4,0.5,41,11.3,40.6,32.4l-1.4,76.5l-82.3-1.5
			l0.8-42.8c0-1.9-0.9-2.9-2.9-3l-19.5-0.4c-1.9,0-2.9,0.9-3,2.9l-2.4,131.4c0,1.9,0.9,2.9,2.9,3l19.5,0.4c1.9,0,2.9-0.9,3-2.9
			l1.1-59.9l82.3,1.5l-1.7,93.9c-0.2,10.5-3.7,18.2-10.6,23.1c-6.9,4.9-17.3,7.2-31.1,6.9l-107.7-2c-13.9-0.3-24.1-2.9-30.8-8.1
			c-6.7-5.1-9.9-12.9-9.8-23.5L1248.5,786.6z"/>
		<path class="st4" d="M1241.4,1170.7l82.3,1.5l-1.9,100.2l2,2.1l21.2,0.4l2.1-2l1.9-100.2l82.3,1.5l-4.9,261.5l-82.3-1.5l1.9-100.2
			l-2-2.1l-21.2-0.4l-2.1,2l-1.9,100.2l-82.3-1.5L1241.4,1170.7z"/>
		<path class="st4" d="M1251.1,1586.7l154.6,2.9l-1.2,62.4l-70.2-1.3l-2.1,2l-0.6,33.3l2,2.1l69.4,1.3l-1.2,62.4l-69.4-1.3l-2.1,2
			l-0.6,33.3l2,2.1l70.7,1.3l-1.2,61.9l-155-2.9L1251.1,1586.7z"/>
		<path class="st4" d="M1225.9,2002.1l148.8,2.8c27.2,0.5,40.5,11.3,40.1,32.3l-1.4,77.3c-0.2,11.4-6.8,17.8-19.9,19.2l-0.1,4.2
			c6.9,1.2,11.9,3.5,15.1,6.7c3.1,3.2,4.6,7.8,4.5,13.6l-1.5,78.1c-0.2,10.5-3.7,18.2-10.6,23.1c-6.9,4.9-17.3,7.2-31.1,6.9
			l-148.8-2.8L1225.9,2002.1z M1306.6,2203.1l20.4,0.4c1.9,0,2.9-0.9,3-2.9l0.7-38.7c0-1.9-0.9-2.9-2.9-3l-20.4-0.4l-2.1,2
			l-0.7,40.3L1306.6,2203.1z M1308.3,2110l20.4,0.4c1.9,0,2.9-0.9,3-2.9l0.7-38.2c0-1.9-0.9-2.9-2.9-3l-20.4-0.4l-2.1,2l-0.7,39.9
			L1308.3,2110z"/>
		<path class="st4" d="M1217.6,2449.3c0.4-21.1,14.3-31.3,41.7-30.8l107.7,2c27.4,0.5,41,11.3,40.6,32.4l-3.7,199.1
			c-0.2,10.5-3.7,18.2-10.6,23.1c-6.9,4.9-17.3,7.2-31.1,6.9l-107.7-2c-13.9-0.3-24.1-2.9-30.8-8.1c-6.7-5.1-9.9-12.9-9.8-23.5
			L1217.6,2449.3z M1299.7,2618.8l19.5,0.4c1.9,0,2.9-0.9,3-2.9l2.4-131.4c0-1.9-0.9-2.9-2.9-3l-19.5-0.4c-1.9,0-2.9,0.9-3,2.9
			l-2.4,131.4C1296.8,2617.8,1297.8,2618.8,1299.7,2618.8z"/>
	</g>
</g>
<g id="SHIELD_OF_FAITH" class="st0">
	<g class="st1">
		<polygon class="st6" points="506.2,1181.1 506.2,1210 506.2,1245.1 506.2,1414.9 506.2,1517.1 506.2,1836.8 390.1,1750.6 
			390.1,1414.9 470.5,1414.9 470.5,1245.1 220.4,1245.1 220.4,1836 591.1,2111.1 961.8,1836 961.8,1245.1 711.7,1245.1 
			711.7,1414.9 792.1,1414.9 792.1,1750.6 676,1836.8 676,1517.1 676,1414.9 676,1245.1 676,1210 676,1181.1 869.6,1181.1 
			869.6,1011.4 676,1011.4 676,888.9 506.2,888.9 506.2,1011.4 312.6,1011.4 312.6,1181.1 		"/>
		<g>
			<path class="st4" d="M1176.5,1079.1h256.6v815.2h-256.6V1079.1z"/>
			<path class="st4" d="M1497.9,1177.6c0-65.7,42.8-98.5,128.3-98.5h335.7c85.5,0,128.3,32.8,128.3,98.5v238.5h-256.6v-133.5
				c0-6-3-9.1-9.1-9.1h-60.9c-6,0-9.1,3-9.1,9.1v409.5c0,6.1,3,9.1,9.1,9.1h60.9c6,0,9.1-3,9.1-9.1v-186.6h256.6v292.9
				c0,32.8-10.6,57-31.8,72.6c-21.2,15.6-53.4,23.3-96.5,23.3h-335.7c-43.2,0-75.4-7.8-96.5-23.3c-21.2-15.5-31.8-39.7-31.8-72.6
				V1177.6z"/>
			<path class="st4" d="M2154.9,1649.4h256.6v42.8c0,6.1,3,9.1,9.1,9.1h60.9c6,0,9.1-3,9.1-9.1v-98.5c0-6-3-9.1-9.1-9.1h-198.3
				c-85.5,0-128.3-32.8-128.3-98.5v-308.5c0-65.7,42.8-98.5,128.3-98.5h335.7c85.5,0,128.3,32.8,128.3,98.5v146.5h-256.6v-41.5
				c0-6-3-9.1-9.1-9.1h-60.9c-6,0-9.1,3-9.1,9.1v98.5c0,6.1,3,9.1,9.1,9.1h198.3c43.2,0,75.4,7.8,96.5,23.3
				c21.2,15.6,31.8,39.8,31.8,72.6v312.3c0,32.8-10.6,57-31.8,72.6c-21.2,15.6-53.4,23.3-96.5,23.3h-335.7
				c-43.2,0-75.4-7.8-96.5-23.3c-21.2-15.5-31.8-39.7-31.8-72.6V1649.4z"/>
		</g>
	</g>
</g>
<g id="full-logo" class="st0">
	<g class="st1">
		<polygon class="st6" points="424.5,1219.3 424.5,1244.6 424.5,1275.6 424.5,1425 424.5,1515 424.5,1796.5 322.3,1720.6 
			322.3,1425 393.1,1425 393.1,1275.6 172.9,1275.6 172.9,1795.8 499.3,2038.1 825.6,1795.8 825.6,1275.6 605.5,1275.6 605.5,1425 
			676.2,1425 676.2,1720.6 574,1796.5 574,1515 574,1425 574,1275.6 574,1244.6 574,1219.3 744.5,1219.3 744.5,1069.8 574,1069.8 
			574,961.9 424.5,961.9 424.5,1069.8 254.1,1069.8 254.1,1219.3 		"/>
		<g>
			<path class="st4" d="M905.4,1280.3H1044v440.3H905.4V1280.3z"/>
			<path class="st4" d="M1078.9,1333.5c0-35.5,23.1-53.2,69.3-53.2h181.3c46.2,0,69.3,17.7,69.3,53.2v128.8h-138.6v-72.1
				c0-3.3-1.6-4.9-4.9-4.9h-32.9c-3.3,0-4.9,1.6-4.9,4.9v221.2c0,3.3,1.6,4.9,4.9,4.9h32.9c3.3,0,4.9-1.6,4.9-4.9v-100.8h138.6
				v158.2c0,17.7-5.7,30.8-17.1,39.2c-11.4,8.4-28.8,12.6-52.2,12.6h-181.3c-23.3,0-40.7-4.2-52.2-12.6
				c-11.4-8.4-17.1-21.5-17.1-39.2V1333.5z"/>
			<path class="st4" d="M1433.8,1280.3h138.6V1449l3.5,3.5h35.7l3.5-3.5v-168.7h138.6v440.3h-138.6v-168.7l-3.5-3.5h-35.7l-3.5,3.5
				v168.7h-138.6V1280.3z"/>
			<path class="st4" d="M1788.7,1280.3h260.4v105h-118.3l-3.5,3.5v56l3.5,3.5h116.9v105h-116.9l-3.5,3.5v56l3.5,3.5h119v104.3
				h-261.1V1280.3z"/>
			<path class="st4" d="M2084.8,1280.3h250.6c45.7,0,68.6,17.7,68.6,53.2v130.2c0,19.1-11,30.1-32.9,32.9v7
				c11.7,1.9,20.2,5.5,25.5,10.8c5.4,5.4,8.1,13,8.1,22.8v131.6c0,17.7-5.7,30.8-17.2,39.2c-11.4,8.4-28.8,12.6-52.2,12.6h-250.6
				V1280.3z M2226.9,1459.5h34.3c3.3,0,4.9-1.6,4.9-4.9v-64.4c0-3.3-1.6-4.9-4.9-4.9h-34.3l-3.5,3.5v67.2L2226.9,1459.5z
				 M2226.9,1616.3h34.3c3.3,0,4.9-1.6,4.9-4.9v-65.1c0-3.3-1.6-4.9-4.9-4.9h-34.3l-3.5,3.5v67.9L2226.9,1616.3z"/>
			<path class="st4" d="M2439.7,1333.5c0-35.5,23.1-53.2,69.3-53.2h181.3c46.2,0,69.3,17.7,69.3,53.2v335.3
				c0,17.7-5.7,30.8-17.2,39.2c-11.4,8.4-28.8,12.6-52.2,12.6H2509c-23.3,0-40.7-4.2-52.1-12.6c-11.4-8.4-17.2-21.5-17.2-39.2
				V1333.5z M2583.2,1616.3h32.9c3.3,0,4.9-1.6,4.9-4.9v-221.2c0-3.3-1.6-4.9-4.9-4.9h-32.9c-3.3,0-4.9,1.6-4.9,4.9v221.2
				C2578.3,1614.7,2579.9,1616.3,2583.2,1616.3z"/>
		</g>
		<g>
			<path class="st4" d="M911.2,1783.8c0-11.8,7.7-17.6,23-17.6h60.1c15.3,0,23,5.9,23,17.6v42.7h-45.9v-23.9c0-1.1-0.5-1.6-1.6-1.6
				h-10.9c-1.1,0-1.6,0.5-1.6,1.6v73.3c0,1.1,0.5,1.6,1.6,1.6h10.9c1.1,0,1.6-0.5,1.6-1.6v-33.4h45.9v52.4c0,5.9-1.9,10.2-5.7,13
				c-3.8,2.8-9.6,4.2-17.3,4.2h-60.1c-7.7,0-13.5-1.4-17.3-4.2c-3.8-2.8-5.7-7.1-5.7-13V1783.8z"/>
			<path class="st4" d="M1028.8,1766.2h45.9v55.9l1.2,1.2h11.8l1.2-1.2v-55.9h45.9v145.9h-45.9v-55.9l-1.2-1.2h-11.8l-1.2,1.2v55.9
				h-45.9V1766.2z"/>
			<path class="st4" d="M1146.4,1766.2h83.1c15.2,0,22.7,5.9,22.7,17.6v43.2c0,6.3-3.6,10-10.9,10.9v2.3c3.9,0.6,6.7,1.8,8.5,3.6
				c1.8,1.8,2.7,4.3,2.7,7.5v60.8h-45.9v-57.8c0-1.1-0.5-1.6-1.6-1.6h-11.4l-1.2,1.2v58.2h-45.9V1766.2z M1193.5,1825.6h11.4
				c1.1,0,1.6-0.5,1.6-1.6v-21.3c0-1.1-0.5-1.6-1.6-1.6h-11.4l-1.2,1.2v22.3L1193.5,1825.6z"/>
			<path class="st4" d="M1264,1766.2h45.9v145.9H1264V1766.2z"/>
			<path class="st4" d="M1321.5,1868.3h45.9v7.7c0,1.1,0.5,1.6,1.6,1.6h10.9c1.1,0,1.6-0.5,1.6-1.6v-17.6c0-1.1-0.5-1.6-1.6-1.6
				h-35.5c-15.3,0-23-5.9-23-17.6v-55.2c0-11.8,7.7-17.6,23-17.6h60.1c15.3,0,23,5.9,23,17.6v26.2h-45.9v-7.4c0-1.1-0.5-1.6-1.6-1.6
				h-10.9c-1.1,0-1.6,0.5-1.6,1.6v17.6c0,1.1,0.5,1.6,1.6,1.6h35.5c7.7,0,13.5,1.4,17.3,4.2c3.8,2.8,5.7,7.1,5.7,13v55.9
				c0,5.9-1.9,10.2-5.7,13c-3.8,2.8-9.6,4.2-17.3,4.2h-60.1c-7.7,0-13.5-1.4-17.3-4.2c-3.8-2.8-5.7-7.1-5.7-13V1868.3z"/>
			<path class="st4" d="M1470.7,1809.1h-33.9v-42h110.9v42h-34.3l-0.2,104.2h-42.5V1809.1z"/>
			<path class="st4" d="M1557,1766.2h45.9v145.9H1557V1766.2z"/>
			<path class="st4" d="M1614.6,1783.8c0-11.8,7.7-17.6,23-17.6h60.1c15.3,0,23,5.9,23,17.6v128.3h-45.9v-54.3l-1.2-1.2h-11.8
				l-1.2,1.2v54.3h-45.9V1783.8z M1661.7,1821.9h11.8l1.2-1.2v-18.1c0-1.1-0.5-1.6-1.6-1.6h-10.9c-1.1,0-1.6,0.5-1.6,1.6v18.1
				L1661.7,1821.9z"/>
			<path class="st4" d="M1732.2,1766.2l39.9,0.2l23,58.9v-59.2h43.2v145.9h-47.3l-24.4-79.1v79.1h-34.3V1766.2z"/>
			<path class="st4" d="M1901.5,1868.3h45.9v7.7c0,1.1,0.5,1.6,1.6,1.6h10.9c1.1,0,1.6-0.5,1.6-1.6v-17.6c0-1.1-0.5-1.6-1.6-1.6
				h-35.5c-15.3,0-23-5.9-23-17.6v-55.2c0-11.8,7.7-17.6,23-17.6h60.1c15.3,0,23,5.9,23,17.6v26.2h-45.9v-7.4c0-1.1-0.5-1.6-1.6-1.6
				h-10.9c-1.1,0-1.6,0.5-1.6,1.6v17.6c0,1.1,0.5,1.6,1.6,1.6h35.5c7.7,0,13.5,1.4,17.3,4.2c3.8,2.8,5.7,7.1,5.7,13v55.9
				c0,5.9-1.9,10.2-5.7,13c-3.8,2.8-9.6,4.2-17.3,4.2h-60.1c-7.7,0-13.5-1.4-17.3-4.2c-3.8-2.8-5.7-7.1-5.7-13V1868.3z"/>
			<path class="st4" d="M2019.2,1766.2h86.3v34.8h-39.2l-1.2,1.2v18.6l1.2,1.2h38.7v34.8h-38.7l-1.2,1.2v18.6l1.2,1.2h39.4v34.6
				h-86.5V1766.2z"/>
			<path class="st4" d="M2117.3,1766.2h83.1c15.2,0,22.7,5.9,22.7,17.6v43.2c0,6.3-3.6,10-10.9,10.9v2.3c3.9,0.6,6.7,1.8,8.5,3.6
				c1.8,1.8,2.7,4.3,2.7,7.5v60.8h-45.9v-57.8c0-1.1-0.5-1.6-1.6-1.6h-11.4l-1.2,1.2v58.2h-45.9V1766.2z M2164.4,1825.6h11.4
				c1.1,0,1.6-0.5,1.6-1.6v-21.3c0-1.1-0.5-1.6-1.6-1.6h-11.4l-1.2,1.2v22.3L2164.4,1825.6z"/>
			<path class="st4" d="M2281.5,1766.2l12.1,88.6h2.3l11.8-88.6h44.8l-23.9,145.9h-70.3l-23.4-145.9H2281.5z"/>
			<path class="st4" d="M2364.1,1766.2h45.9v145.9h-45.9V1766.2z"/>
			<path class="st4" d="M2421.7,1783.8c0-11.8,7.7-17.6,23-17.6h60.1c15.3,0,23,5.9,23,17.6v42.7h-45.9v-23.9c0-1.1-0.5-1.6-1.6-1.6
				h-10.9c-1.1,0-1.6,0.5-1.6,1.6v73.3c0,1.1,0.5,1.6,1.6,1.6h10.9c1.1,0,1.6-0.5,1.6-1.6v-33.4h45.9v52.4c0,5.9-1.9,10.2-5.7,13
				c-3.8,2.8-9.6,4.2-17.3,4.2h-60.1c-7.7,0-13.5-1.4-17.3-4.2c-3.8-2.8-5.7-7.1-5.7-13V1783.8z"/>
			<path class="st4" d="M2539.3,1766.2h86.3v34.8h-39.2l-1.2,1.2v18.6l1.2,1.2h38.7v34.8h-38.7l-1.2,1.2v18.6l1.2,1.2h39.4v34.6
				h-86.5V1766.2z"/>
			<path class="st4" d="M2637.4,1868.3h45.9v7.7c0,1.1,0.5,1.6,1.6,1.6h10.9c1.1,0,1.6-0.5,1.6-1.6v-17.6c0-1.1-0.5-1.6-1.6-1.6
				h-35.5c-15.3,0-23-5.9-23-17.6v-55.2c0-11.8,7.7-17.6,23-17.6h60.1c15.3,0,23,5.9,23,17.6v26.2h-45.9v-7.4c0-1.1-0.5-1.6-1.6-1.6
				H2685c-1.1,0-1.6,0.5-1.6,1.6v17.6c0,1.1,0.5,1.6,1.6,1.6h35.5c7.7,0,13.5,1.4,17.3,4.2c3.8,2.8,5.7,7.1,5.7,13v55.9
				c0,5.9-1.9,10.2-5.7,13c-3.8,2.8-9.6,4.2-17.3,4.2h-60.1c-7.7,0-13.5-1.4-17.3-4.2c-3.8-2.8-5.7-7.1-5.7-13V1868.3z"/>
		</g>
	</g>
</g>
<g id="Layer_5">
	<polygon class="st6" points="1381,904.8 1381,958.7 1381,1024.3 1381,1341.1 1381,1531.9 1381,2128.6 1164.3,1967.7 1164.3,1341.1 
		1314.3,1341.1 1314.3,1024.3 847.5,1024.3 847.5,2127.1 1539.4,2640.7 2231.3,2127.1 2231.3,1024.3 1764.5,1024.3 1764.5,1341.1 
		1914.5,1341.1 1914.5,1967.7 1697.8,2128.6 1697.8,1531.9 1697.8,1341.1 1697.8,1024.3 1697.8,958.7 1697.8,904.8 2059.2,904.8 
		2059.2,588 1697.8,588 1697.8,359.3 1381,359.3 1381,588 1019.5,588 1019.5,904.8 	"/>
	<g>
	</g>
	<g>
	</g>
	<g>
	</g>
	<g>
	</g>
	<g>
	</g>
	<g>
	</g>
	<g>
	</g>
	<g>
	</g>
	<g>
	</g>
	<g>
	</g>
	<g>
	</g>
	<g>
	</g>
	<g>
	</g>
	<g>
	</g>
	<g>
	</g>
</g>
</svg>
