<?xml version="1.0" encoding="UTF-8"?><svg id="handbook" xmlns="http://www.w3.org/2000/svg" viewBox="0 0 1000 425.04"><defs><style>.cls-1,.cls-2{fill:#fff;}.cls-2{fill-rule:evenodd;}</style></defs><polygon class="cls-2" points="71.86 146.24 71.86 152.23 71.86 159.54 71.86 194.82 71.86 216.07 71.86 282.52 47.73 264.61 47.73 194.82 64.43 194.82 64.43 159.54 12.45 159.54 12.45 282.36 89.5 339.56 166.56 282.36 166.56 159.54 114.58 159.54 114.58 194.82 131.28 194.82 131.28 264.61 107.14 282.52 107.14 216.07 107.14 194.82 107.14 159.54 107.14 152.23 107.14 146.24 147.4 146.24 147.4 110.96 107.14 110.96 107.14 85.49 71.86 85.49 71.86 110.96 31.61 110.96 31.61 146.24 71.86 146.24"/><path class="cls-1" d="m182.34,159.98h39.09v47.58l.99.99h10.07l.99-.99v-47.58h39.09v124.17h-39.09v-47.58l-.99-.99h-10.07l-.99.99v47.58h-39.09v-124.17Z"/><path class="cls-1" d="m282.43,174.98c0-10,6.51-15,19.54-15h51.13c13.03,0,19.54,5,19.54,15v109.17h-39.09v-46.19l-.99-.99h-10.07l-.99.99v46.19h-39.09v-109.17Zm40.07,32.38h10.07l.99-.99v-15.4c0-.92-.46-1.38-1.38-1.38h-9.28c-.92,0-1.38.46-1.38,1.38v15.4l.99.99Z"/><path class="cls-1" d="m382.51,159.98l33.95.2,19.54,50.14v-50.34h36.72v124.17h-40.27l-20.73-67.32v67.32h-29.22v-124.17Z"/><path class="cls-1" d="m482.6,159.98h70.67c13.03,0,19.54,5,19.54,15v94.56c0,5-1.61,8.69-4.84,11.06-3.23,2.37-8.13,3.55-14.71,3.55h-70.67v-124.17Zm40.07,94.76h9.67c.92,0,1.38-.46,1.38-1.38v-62.38c0-.92-.46-1.38-1.38-1.38h-9.67l-.99.99v63.17l.99.99Z"/><path class="cls-1" d="m582.68,159.98h70.67c12.9,0,19.35,5,19.35,15v36.72c0,5.4-3.09,8.49-9.28,9.28v1.97c3.29.53,5.69,1.55,7.21,3.06,1.51,1.51,2.27,3.65,2.27,6.42v37.11c0,5-1.61,8.69-4.84,11.06-3.23,2.37-8.13,3.55-14.71,3.55h-70.67v-124.17Zm40.07,50.54h9.67c.92,0,1.38-.46,1.38-1.38v-18.16c0-.92-.46-1.38-1.38-1.38h-9.67l-.99.99v18.95l.99.99Zm0,44.22h9.67c.92,0,1.38-.46,1.38-1.38v-18.36c0-.92-.46-1.38-1.38-1.38h-9.67l-.99.99v19.15l.99.99Z"/><path class="cls-1" d="m682.77,174.98c0-10,6.51-15,19.54-15h51.13c13.03,0,19.54,5,19.54,15v94.56c0,5-1.61,8.69-4.84,11.06-3.23,2.37-8.13,3.55-14.71,3.55h-51.13c-6.58,0-11.48-1.18-14.71-3.55-3.23-2.37-4.84-6.05-4.84-11.06v-94.56Zm40.47,79.75h9.28c.92,0,1.38-.46,1.38-1.38v-62.38c0-.92-.46-1.38-1.38-1.38h-9.28c-.92,0-1.38.46-1.38,1.38v62.38c0,.92.46,1.38,1.38,1.38Z"/><path class="cls-1" d="m782.85,174.98c0-10,6.51-15,19.54-15h51.13c13.03,0,19.54,5,19.54,15v94.56c0,5-1.61,8.69-4.84,11.06-3.23,2.37-8.13,3.55-14.71,3.55h-51.13c-6.58,0-11.48-1.18-14.71-3.55-3.23-2.37-4.84-6.05-4.84-11.06v-94.56Zm40.47,79.75h9.28c.92,0,1.38-.46,1.38-1.38v-62.38c0-.92-.46-1.38-1.38-1.38h-9.28c-.92,0-1.38.46-1.38,1.38v62.38c0,.92.46,1.38,1.38,1.38Z"/><path class="cls-1" d="m882.94,159.98h37.71v31.19l1.97.39,12.04-31.59h40.86l-27.64,59.42v.79l28.82,63.96h-40.86l-13.23-33.17-1.97.4v32.77h-37.71v-124.17Z"/></svg>