<?xml version="1.0" encoding="UTF-8"?><svg id="learn" xmlns="http://www.w3.org/2000/svg" viewBox="0 0 1000 425.04"><defs><style>.cls-1,.cls-2{fill:#fff;}.cls-2{fill-rule:evenodd;}</style></defs><polygon class="cls-2" points="180.84 131.53 180.84 138.86 180.84 147.79 180.84 190.9 180.84 216.86 180.84 298.05 151.36 276.16 151.36 190.9 171.76 190.9 171.76 147.79 108.25 147.79 108.25 297.85 202.4 367.73 296.55 297.85 296.55 147.79 233.03 147.79 233.03 190.9 253.44 190.9 253.44 276.16 223.95 298.05 223.95 216.86 223.95 190.9 223.95 147.79 223.95 138.86 223.95 131.53 273.13 131.53 273.13 88.43 223.95 88.43 223.95 57.31 180.84 57.31 180.84 88.43 131.66 88.43 131.66 131.53 180.84 131.53"/><path class="cls-1" d="m327.05,149.4h48.31v115.9l1.22,1.22h31.72v36.36h-81.25v-153.48Z"/><path class="cls-1" d="m420.51,149.4h90.77v36.6h-41.24l-1.22,1.22v19.52l1.22,1.22h40.75v36.6h-40.75l-1.22,1.22v19.52l1.22,1.22h41.48v36.36h-91.01v-153.48Z"/><path class="cls-1" d="m523.71,167.95c0-12.36,8.05-18.54,24.16-18.54h63.2c16.1,0,24.16,6.18,24.16,18.54v134.93h-48.31v-57.1l-1.22-1.22h-12.44l-1.22,1.22v57.1h-48.31v-134.93Zm49.53,40.02h12.44l1.22-1.22v-19.03c0-1.14-.57-1.71-1.71-1.71h-11.47c-1.14,0-1.71.57-1.71,1.71v19.03l1.22,1.22Z"/><path class="cls-1" d="m647.42,149.4h87.35c15.94,0,23.91,6.18,23.91,18.54v45.38c0,6.67-3.82,10.49-11.47,11.47v2.44c4.06.65,7.03,1.91,8.91,3.78,1.87,1.87,2.81,4.51,2.81,7.93v63.93h-48.31v-60.76c0-1.14-.57-1.71-1.71-1.71h-11.96l-1.22,1.22v61.24h-48.31v-153.48Zm49.53,62.46h11.96c1.14,0,1.71-.57,1.71-1.71v-22.45c0-1.14-.57-1.71-1.71-1.71h-11.96l-1.22,1.22v23.42l1.22,1.22Z"/><path class="cls-1" d="m771.12,149.4l41.97.24,24.16,61.98v-62.22h45.38v153.48h-49.78l-25.62-83.2v83.2h-36.11v-153.48Z"/></svg>