<?xml version="1.0" encoding="UTF-8"?><svg id="ichebo" xmlns="http://www.w3.org/2000/svg" viewBox="0 0 1000 425.04"><defs><style>.cls-1,.cls-2{fill:#fff;}.cls-2{fill-rule:evenodd;}</style></defs><polygon class="cls-2" points="133.68 115.71 133.68 123.58 133.68 133.17 133.68 179.48 133.68 207.37 133.68 294.59 102.01 271.08 102.01 179.48 123.93 179.48 123.93 133.17 55.7 133.17 55.7 294.38 156.84 369.45 257.98 294.38 257.98 133.17 189.75 133.17 189.75 179.48 211.67 179.48 211.67 271.08 179.99 294.59 179.99 207.37 179.99 179.48 179.99 133.17 179.99 123.58 179.99 115.71 232.83 115.71 232.83 69.4 179.99 69.4 179.99 35.97 133.68 35.97 133.68 69.4 80.85 69.4 80.85 115.71 133.68 115.71"/><path class="cls-1" d="m270.98,132.75h50.59v160.72h-50.59v-160.72Z"/><path class="cls-1" d="m334.34,152.17c0-12.94,8.43-19.42,25.3-19.42h66.18c16.86,0,25.3,6.48,25.3,19.42v47.02h-50.59v-26.32c0-1.19-.6-1.79-1.79-1.79h-12.01c-1.19,0-1.79.6-1.79,1.79v80.74c0,1.19.59,1.79,1.79,1.79h12.01c1.19,0,1.79-.59,1.79-1.79v-36.79h50.59v57.75c0,6.48-2.09,11.24-6.26,14.31-4.18,3.07-10.52,4.6-19.04,4.6h-66.18c-8.52,0-14.86-1.53-19.04-4.6-4.18-3.07-6.26-7.83-6.26-14.31v-122.39Z"/><path class="cls-1" d="m463.89,132.75h50.59v61.58l1.28,1.28h13.03l1.28-1.28v-61.58h50.59v160.72h-50.59v-61.58l-1.28-1.28h-13.03l-1.28,1.28v61.58h-50.59v-160.72Z"/><path class="cls-1" d="m593.43,132.75h95.05v38.33h-43.18l-1.28,1.28v20.44l1.28,1.28h42.67v38.33h-42.67l-1.28,1.28v20.44l1.28,1.28h43.44v38.07h-95.31v-160.72Z"/><path class="cls-1" d="m701.51,132.75h91.48c16.69,0,25.04,6.48,25.04,19.42v47.53c0,6.99-4,10.99-12.01,12.01v2.55c4.26.68,7.37,2,9.33,3.96,1.96,1.96,2.94,4.73,2.94,8.3v48.04c0,6.48-2.09,11.24-6.26,14.31-4.18,3.07-10.52,4.6-19.04,4.6h-91.48v-160.72Zm51.87,65.41h12.52c1.19,0,1.79-.6,1.79-1.79v-23.51c0-1.19-.6-1.79-1.79-1.79h-12.52l-1.28,1.28v24.53l1.28,1.28Zm0,57.24h12.52c1.19,0,1.79-.59,1.79-1.79v-23.76c0-1.19-.6-1.79-1.79-1.79h-12.52l-1.28,1.28v24.79l1.28,1.28Z"/><path class="cls-1" d="m831.06,152.17c0-12.94,8.43-19.42,25.3-19.42h66.18c16.86,0,25.3,6.48,25.3,19.42v122.39c0,6.48-2.09,11.24-6.26,14.31-4.18,3.07-10.52,4.6-19.04,4.6h-66.18c-8.52,0-14.86-1.53-19.04-4.6-4.18-3.07-6.26-7.83-6.26-14.31v-122.39Zm52.38,103.23h12.01c1.19,0,1.79-.59,1.79-1.79v-80.74c0-1.19-.6-1.79-1.79-1.79h-12.01c-1.19,0-1.79.6-1.79,1.79v80.74c0,1.19.59,1.79,1.79,1.79Z"/><path class="cls-1" d="m273.1,316.53c0-4.29,2.79-6.44,8.38-6.44h21.93c5.59,0,8.38,2.15,8.38,6.44v15.58h-16.77v-8.72c0-.39-.2-.59-.59-.59h-3.98c-.4,0-.59.2-.59.59v26.76c0,.4.2.59.59.59h3.98c.39,0,.59-.2.59-.59v-12.19h16.77v19.14c0,2.15-.69,3.73-2.07,4.74-1.38,1.02-3.49,1.52-6.31,1.52h-21.93c-2.82,0-4.93-.51-6.31-1.52-1.38-1.02-2.07-2.6-2.07-4.74v-40.56Z"/><path class="cls-1" d="m316.03,310.1h16.77v20.41l.42.42h4.32l.42-.42v-20.41h16.77v53.27h-16.77v-20.41l-.42-.42h-4.32l-.42.42v20.41h-16.77v-53.27Z"/><path class="cls-1" d="m358.97,310.1h30.32c5.53,0,8.3,2.15,8.3,6.44v15.75c0,2.32-1.33,3.64-3.98,3.98v.85c1.41.23,2.44.66,3.09,1.31.65.65.97,1.57.97,2.75v22.19h-16.77v-21.09c0-.39-.2-.59-.59-.59h-4.15l-.42.42v21.26h-16.77v-53.27Zm17.19,21.68h4.15c.39,0,.59-.2.59-.59v-7.79c0-.39-.2-.59-.59-.59h-4.15l-.42.42v8.13l.42.42Z"/><path class="cls-1" d="m401.9,310.1h16.77v53.27h-16.77v-53.27Z"/><path class="cls-1" d="m422.9,347.36h16.77v2.79c0,.4.2.59.59.59h3.98c.39,0,.59-.2.59-.59v-6.44c0-.39-.2-.59-.59-.59h-12.96c-5.59,0-8.38-2.15-8.38-6.44v-20.16c0-4.29,2.79-6.44,8.38-6.44h21.93c5.59,0,8.38,2.15,8.38,6.44v9.57h-16.77v-2.71c0-.39-.2-.59-.59-.59h-3.98c-.4,0-.59.2-.59.59v6.44c0,.4.2.59.59.59h12.96c2.82,0,4.93.51,6.31,1.52,1.38,1.02,2.07,2.6,2.07,4.74v20.41c0,2.15-.69,3.73-2.07,4.74-1.38,1.02-3.49,1.52-6.31,1.52h-21.93c-2.82,0-4.93-.51-6.31-1.52-1.38-1.02-2.07-2.6-2.07-4.74v-9.74Z"/><path class="cls-1" d="m477.35,325.76h-12.36v-15.33h40.48v15.33h-12.53l-.08,38.02h-15.5v-38.02Z"/><path class="cls-1" d="m508.85,310.1h16.77v53.27h-16.77v-53.27Z"/><path class="cls-1" d="m529.86,316.53c0-4.29,2.79-6.44,8.38-6.44h21.93c5.59,0,8.38,2.15,8.38,6.44v46.83h-16.77v-19.82l-.42-.42h-4.32l-.42.42v19.82h-16.77v-46.83Zm17.19,13.89h4.32l.42-.42v-6.61c0-.39-.2-.59-.59-.59h-3.98c-.4,0-.59.2-.59.59v6.61l.42.42Z"/><path class="cls-1" d="m572.79,310.1l14.57.08,8.38,21.51v-21.59h15.75v53.27h-17.28l-8.89-28.88v28.88h-12.53v-53.27Z"/><path class="cls-1" d="m634.61,347.36h16.77v2.79c0,.4.2.59.59.59h3.98c.39,0,.59-.2.59-.59v-6.44c0-.39-.2-.59-.59-.59h-12.96c-5.59,0-8.38-2.15-8.38-6.44v-20.16c0-4.29,2.79-6.44,8.38-6.44h21.93c5.59,0,8.38,2.15,8.38,6.44v9.57h-16.77v-2.71c0-.39-.2-.59-.59-.59h-3.98c-.4,0-.59.2-.59.59v6.44c0,.4.2.59.59.59h12.96c2.82,0,4.92.51,6.31,1.52,1.38,1.02,2.07,2.6,2.07,4.74v20.41c0,2.15-.69,3.73-2.07,4.74-1.38,1.02-3.49,1.52-6.31,1.52h-21.93c-2.82,0-4.93-.51-6.31-1.52-1.38-1.02-2.08-2.6-2.08-4.74v-9.74Z"/><path class="cls-1" d="m677.54,310.1h31.5v12.7h-14.31l-.42.42v6.77l.42.42h14.14v12.7h-14.14l-.42.42v6.78l.42.42h14.4v12.62h-31.59v-53.27Z"/><path class="cls-1" d="m713.37,310.1h30.32c5.53,0,8.3,2.15,8.3,6.44v15.75c0,2.32-1.33,3.64-3.98,3.98v.85c1.41.23,2.44.66,3.09,1.31.65.65.97,1.57.97,2.75v22.19h-16.77v-21.09c0-.39-.2-.59-.59-.59h-4.15l-.42.42v21.26h-16.77v-53.27Zm17.19,21.68h4.15c.39,0,.59-.2.59-.59v-7.79c0-.39-.2-.59-.59-.59h-4.15l-.42.42v8.13l.42.42Z"/><path class="cls-1" d="m773.32,310.1l4.4,32.35h.85l4.32-32.35h16.34l-8.72,53.27h-25.66l-8.55-53.27h17.02Z"/><path class="cls-1" d="m803.47,310.1h16.77v53.27h-16.77v-53.27Z"/><path class="cls-1" d="m824.47,316.53c0-4.29,2.79-6.44,8.38-6.44h21.93c5.59,0,8.38,2.15,8.38,6.44v15.58h-16.77v-8.72c0-.39-.2-.59-.59-.59h-3.98c-.4,0-.59.2-.59.59v26.76c0,.4.2.59.59.59h3.98c.39,0,.59-.2.59-.59v-12.19h16.77v19.14c0,2.15-.69,3.73-2.07,4.74-1.38,1.02-3.49,1.52-6.31,1.52h-21.93c-2.82,0-4.93-.51-6.31-1.52-1.38-1.02-2.08-2.6-2.08-4.74v-40.56Z"/><path class="cls-1" d="m867.4,310.1h31.5v12.7h-14.31l-.42.42v6.77l.42.42h14.14v12.7h-14.14l-.42.42v6.78l.42.42h14.4v12.62h-31.59v-53.27Z"/><path class="cls-1" d="m903.23,347.36h16.77v2.79c0,.4.2.59.59.59h3.98c.39,0,.59-.2.59-.59v-6.44c0-.39-.2-.59-.59-.59h-12.96c-5.59,0-8.38-2.15-8.38-6.44v-20.16c0-4.29,2.79-6.44,8.38-6.44h21.93c5.59,0,8.38,2.15,8.38,6.44v9.57h-16.77v-2.71c0-.39-.2-.59-.59-.59h-3.98c-.4,0-.59.2-.59.59v6.44c0,.4.2.59.59.59h12.96c2.82,0,4.92.51,6.31,1.52,1.38,1.02,2.07,2.6,2.07,4.74v20.41c0,2.15-.69,3.73-2.07,4.74-1.38,1.02-3.49,1.52-6.31,1.52h-21.93c-2.82,0-4.93-.51-6.31-1.52-1.38-1.02-2.08-2.6-2.08-4.74v-9.74Z"/></svg>