<?xml version="1.0" encoding="UTF-8"?><svg id="Layer_2" xmlns="http://www.w3.org/2000/svg" viewBox="0 0 2559.19 1322.58"><defs><style>.cls-1{fill-rule:evenodd;}.cls-1,.cls-2{fill:#231f20;}</style></defs><g id="Layer_1-2"><polygon class="cls-1" points="285.83 342.42 285.83 371.26 285.83 406.42 285.83 576.15 285.83 678.38 285.83 998.04 169.73 911.87 169.73 576.15 250.08 576.15 250.08 406.42 0 406.42 0 997.27 370.69 1272.4 741.38 997.27 741.38 406.42 491.31 406.42 491.31 576.15 571.65 576.15 571.65 911.87 455.56 998.04 455.56 678.38 455.56 576.15 455.56 406.42 455.56 371.26 455.56 342.42 649.2 342.42 649.2 172.69 455.56 172.69 455.56 50.17 285.83 50.17 285.83 172.69 92.18 172.69 92.18 342.42 285.83 342.42"/><path class="cls-2" d="m956.1,240.42h256.61v815.17h-256.61V240.42Z"/><path class="cls-2" d="m1277.49,338.91c0-65.66,42.77-98.48,128.3-98.48h335.67c85.53,0,128.3,32.83,128.3,98.48v238.47h-256.61v-133.48c0-6.05-3.03-9.08-9.08-9.08h-60.91c-6.05,0-9.06,3.03-9.06,9.08v409.53c0,6.06,3.02,9.08,9.06,9.08h60.91c6.05,0,9.08-3.02,9.08-9.08v-186.62h256.61v292.89c0,32.84-10.59,57.03-31.75,72.58-21.17,15.56-53.36,23.33-96.55,23.33h-335.67c-43.2,0-75.39-7.77-96.55-23.33-21.17-15.55-31.75-39.73-31.75-72.58V338.91Z"/><path class="cls-2" d="m1934.54,810.66h256.61v42.77c0,6.06,3.02,9.08,9.06,9.08h60.91c6.05,0,9.08-3.02,9.08-9.08v-98.5c0-6.03-3.03-9.06-9.08-9.06h-198.28c-85.53,0-128.3-32.83-128.3-98.5v-308.45c0-65.66,42.77-98.48,128.3-98.48h335.67c85.53,0,128.3,32.83,128.3,98.48v146.45h-256.61v-41.47c0-6.05-3.03-9.08-9.08-9.08h-60.91c-6.05,0-9.06,3.03-9.06,9.08v98.48c0,6.06,3.02,9.08,9.06,9.08h198.3c43.19,0,75.38,7.78,96.55,23.33,21.16,15.56,31.75,39.75,31.75,72.58v312.33c0,32.84-10.59,57.03-31.75,72.58-21.17,15.56-53.36,23.33-96.55,23.33h-335.67c-43.2,0-75.39-7.77-96.55-23.33-21.17-15.55-31.75-39.73-31.75-72.58v-149.03Z"/></g></svg>