<?xml version="1.0" encoding="UTF-8"?><svg id="Layer_1" xmlns="http://www.w3.org/2000/svg" viewBox="0 0 904.82 373.89"><polygon points="87.44 89.4 87.44 98.22 87.44 108.98 87.44 160.9 87.44 192.17 87.44 289.96 51.92 263.6 51.92 160.9 76.5 160.9 76.5 108.98 0 108.98 0 289.72 113.4 373.89 226.79 289.72 226.79 108.98 150.29 108.98 150.29 160.9 174.87 160.9 174.87 263.6 139.36 289.96 139.36 192.17 139.36 160.9 139.36 108.98 139.36 98.22 139.36 89.4 198.6 89.4 198.6 37.48 139.36 37.48 139.36 0 87.44 0 87.44 37.48 28.2 37.48 28.2 89.4 87.44 89.4" style="fill:#fff; fill-rule:evenodd;"/><path d="m254.49,110.63h48.16v152.98h-48.16V110.63Z" style="fill:#fff;"/><path d="m314.8,129.11c0-12.32,8.03-18.48,24.08-18.48h62.99c16.05,0,24.08,6.16,24.08,18.48v44.75h-48.16v-25.05c0-1.13-.57-1.7-1.7-1.7h-11.43c-1.14,0-1.7.57-1.7,1.7v76.85c0,1.14.57,1.7,1.7,1.7h11.43c1.13,0,1.7-.57,1.7-1.7v-35.02h48.16v54.97c0,6.16-1.99,10.7-5.96,13.62-3.98,2.92-10.01,4.38-18.12,4.38h-62.99c-8.11,0-14.15-1.46-18.12-4.38-3.98-2.92-5.96-7.46-5.96-13.62v-116.5Z" style="fill:#fff;"/><path d="m438.11,110.63h48.16v58.61l1.22,1.22h12.4l1.22-1.22v-58.61h48.16v152.98h-48.16v-58.61l-1.22-1.22h-12.4l-1.22,1.22v58.61h-48.16V110.63Z" style="fill:#fff;"/><path d="m561.42,110.63h90.47v36.48h-41.1l-1.22,1.22v19.46l1.22,1.22h40.62v36.48h-40.62l-1.22,1.22v19.46l1.22,1.22h41.35v36.24h-90.72V110.63Z" style="fill:#fff;"/><path d="m664.29,110.63h87.07c15.89,0,23.83,6.16,23.83,18.48v45.24c0,6.65-3.81,10.46-11.43,11.43v2.43c4.05.65,7.01,1.91,8.88,3.77,1.86,1.87,2.8,4.5,2.8,7.9v45.72c0,6.16-1.99,10.7-5.96,13.62-3.97,2.92-10.01,4.38-18.12,4.38h-87.07V110.63Zm49.37,62.26h11.92c1.13,0,1.7-.57,1.7-1.7v-22.38c0-1.13-.57-1.7-1.7-1.7h-11.92l-1.22,1.22v23.35l1.22,1.22Zm0,54.48h11.92c1.13,0,1.7-.57,1.7-1.7v-22.62c0-1.13-.57-1.7-1.7-1.7h-11.92l-1.22,1.22v23.59l1.22,1.22Z" style="fill:#fff;"/><path d="m787.6,129.11c0-12.32,8.03-18.48,24.08-18.48h62.99c16.05,0,24.08,6.16,24.08,18.48v116.5c0,6.16-1.99,10.7-5.96,13.62-3.98,2.92-10.01,4.38-18.12,4.38h-62.99c-8.11,0-14.15-1.46-18.12-4.38-3.97-2.92-5.96-7.46-5.96-13.62v-116.5Zm49.86,98.26h11.43c1.13,0,1.7-.57,1.7-1.7v-76.85c0-1.13-.57-1.7-1.7-1.7h-11.43c-1.14,0-1.7.57-1.7,1.7v76.85c0,1.14.57,1.7,1.7,1.7Z" style="fill:#fff;"/><path d="m256.5,285.56c0-4.08,2.66-6.13,7.98-6.13h20.88c5.32,0,7.98,2.04,7.98,6.13v14.83h-15.96v-8.3c0-.38-.19-.56-.56-.56h-3.79c-.38,0-.56.19-.56.56v25.47c0,.38.19.56.56.56h3.79c.38,0,.56-.19.56-.56v-11.61h15.96v18.22c0,2.04-.66,3.55-1.97,4.51-1.32.97-3.32,1.45-6.01,1.45h-20.88c-2.69,0-4.69-.48-6-1.45-1.32-.97-1.98-2.47-1.98-4.51v-38.61Z" style="fill:#fff;"/><path d="m297.37,279.44h15.96v19.43l.4.4h4.11l.4-.4v-19.43h15.96v50.7h-15.96v-19.43l-.4-.4h-4.11l-.4.4v19.43h-15.96v-50.7Z" style="fill:#fff;"/><path d="m338.24,279.44h28.86c5.27,0,7.9,2.04,7.9,6.13v14.99c0,2.2-1.26,3.47-3.79,3.79v.81c1.34.22,2.32.63,2.94,1.25.62.62.93,1.49.93,2.62v21.12h-15.96v-20.07c0-.38-.19-.56-.56-.56h-3.95l-.4.4v20.23h-15.96v-50.7Zm16.36,20.63h3.95c.38,0,.56-.19.56-.56v-7.42c0-.38-.19-.56-.56-.56h-3.95l-.4.4v7.74l.4.4Z" style="fill:#fff;"/><path d="m379.11,279.44h15.96v50.7h-15.96v-50.7Z" style="fill:#fff;"/><path d="m399.09,314.91h15.96v2.66c0,.38.19.56.56.56h3.79c.38,0,.56-.19.56-.56v-6.13c0-.38-.19-.56-.56-.56h-12.33c-5.32,0-7.98-2.04-7.98-6.13v-19.18c0-4.08,2.66-6.13,7.98-6.13h20.88c5.32,0,7.98,2.04,7.98,6.13v9.11h-15.96v-2.58c0-.38-.19-.56-.56-.56h-3.79c-.38,0-.56.19-.56.56v6.13c0,.38.19.56.56.56h12.33c2.69,0,4.69.48,6.01,1.45,1.32.97,1.97,2.47,1.97,4.51v19.43c0,2.04-.66,3.55-1.97,4.51-1.32.97-3.32,1.45-6.01,1.45h-20.88c-2.69,0-4.69-.48-6-1.45-1.32-.97-1.98-2.47-1.98-4.51v-9.27Z" style="fill:#fff;"/><path d="m450.92,294.35h-11.77v-14.59h38.53v14.59h-11.93l-.08,36.19h-14.75v-36.19Z" style="fill:#fff;"/><path d="m480.91,279.44h15.96v50.7h-15.96v-50.7Z" style="fill:#fff;"/><path d="m500.9,285.56c0-4.08,2.66-6.13,7.98-6.13h20.88c5.32,0,7.98,2.04,7.98,6.13v44.58h-15.96v-18.86l-.4-.4h-4.11l-.4.4v18.86h-15.96v-44.58Zm16.36,13.22h4.11l.4-.4v-6.29c0-.38-.19-.56-.56-.56h-3.79c-.38,0-.56.19-.56.56v6.29l.4.4Z" style="fill:#fff;"/><path d="m541.77,279.44l13.86.08,7.98,20.47v-20.55h14.99v50.7h-16.44l-8.46-27.49v27.49h-11.93v-50.7Z" style="fill:#fff;"/><path d="m600.61,314.91h15.96v2.66c0,.38.19.56.56.56h3.79c.38,0,.56-.19.56-.56v-6.13c0-.38-.19-.56-.56-.56h-12.33c-5.32,0-7.98-2.04-7.98-6.13v-19.18c0-4.08,2.66-6.13,7.98-6.13h20.88c5.32,0,7.98,2.04,7.98,6.13v9.11h-15.96v-2.58c0-.38-.19-.56-.56-.56h-3.79c-.38,0-.56.19-.56.56v6.13c0,.38.19.56.56.56h12.33c2.69,0,4.69.48,6.01,1.45,1.32.97,1.97,2.47,1.97,4.51v19.43c0,2.04-.66,3.55-1.97,4.51-1.32.97-3.32,1.45-6.01,1.45h-20.88c-2.69,0-4.69-.48-6-1.45-1.32-.97-1.98-2.47-1.98-4.51v-9.27Z" style="fill:#fff;"/><path d="m641.47,279.44h29.99v12.09h-13.62l-.4.4v6.45l.4.4h13.46v12.09h-13.46l-.4.4v6.45l.4.4h13.7v12.01h-30.07v-50.7Z" style="fill:#fff;"/><path d="m675.57,279.44h28.86c5.27,0,7.9,2.04,7.9,6.13v14.99c0,2.2-1.26,3.47-3.79,3.79v.81c1.34.22,2.32.63,2.94,1.25.62.62.93,1.49.93,2.62v21.12h-15.96v-20.07c0-.38-.19-.56-.56-.56h-3.95l-.4.4v20.23h-15.96v-50.7Zm16.36,20.63h3.95c.38,0,.56-.19.56-.56v-7.42c0-.38-.19-.56-.56-.56h-3.95l-.4.4v7.74l.4.4Z" style="fill:#fff;"/><path d="m732.64,279.44l4.19,30.79h.81l4.11-30.79h15.56l-8.3,50.7h-24.42l-8.14-50.7h16.2Z" style="fill:#fff;"/><path d="m761.34,279.44h15.96v50.7h-15.96v-50.7Z" style="fill:#fff;"/><path d="m781.32,285.56c0-4.08,2.66-6.13,7.98-6.13h20.88c5.32,0,7.98,2.04,7.98,6.13v14.83h-15.96v-8.3c0-.38-.19-.56-.56-.56h-3.79c-.38,0-.56.19-.56.56v25.47c0,.38.19.56.56.56h3.79c.38,0,.56-.19.56-.56v-11.61h15.96v18.22c0,2.04-.66,3.55-1.97,4.51-1.32.97-3.32,1.45-6.01,1.45h-20.88c-2.69,0-4.69-.48-6-1.45-1.32-.97-1.98-2.47-1.98-4.51v-38.61Z" style="fill:#fff;"/><path d="m822.19,279.44h29.99v12.09h-13.62l-.4.4v6.45l.4.4h13.46v12.09h-13.46l-.4.4v6.45l.4.4h13.7v12.01h-30.07v-50.7Z" style="fill:#fff;"/><path d="m856.29,314.91h15.96v2.66c0,.38.19.56.56.56h3.79c.38,0,.56-.19.56-.56v-6.13c0-.38-.19-.56-.56-.56h-12.33c-5.32,0-7.98-2.04-7.98-6.13v-19.18c0-4.08,2.66-6.13,7.98-6.13h20.88c5.32,0,7.98,2.04,7.98,6.13v9.11h-15.96v-2.58c0-.38-.19-.56-.56-.56h-3.79c-.38,0-.56.19-.56.56v6.13c0,.38.19.56.56.56h12.33c2.69,0,4.69.48,6.01,1.45,1.32.97,1.97,2.47,1.97,4.51v19.43c0,2.04-.66,3.55-1.97,4.51-1.32.97-3.32,1.45-6.01,1.45h-20.88c-2.69,0-4.69-.48-6-1.45-1.32-.97-1.98-2.47-1.98-4.51v-9.27Z" style="fill:#fff;"/></svg>